<svg width="14" height="15" viewBox="0 0 14 15" fill="none" xmlns="http://www.w3.org/2000/svg">
<path d="M7.00008 13.7707C3.54091 13.7707 0.729248 10.959 0.729248 7.49984C0.729248 4.04067 3.54091 1.229 7.00008 1.229C10.4592 1.229 13.2709 4.04067 13.2709 7.49984C13.2709 10.959 10.4592 13.7707 7.00008 13.7707ZM7.00008 2.104C4.02508 2.104 1.60425 4.52484 1.60425 7.49984C1.60425 10.4748 4.02508 12.8957 7.00008 12.8957C9.97508 12.8957 12.3959 10.4748 12.3959 7.49984C12.3959 4.52484 9.97508 2.104 7.00008 2.104Z" fill="#67687E"/>
<path d="M9.04175 7.9375H5.54175C5.30258 7.9375 5.10425 7.73917 5.10425 7.5C5.10425 7.26083 5.30258 7.0625 5.54175 7.0625H9.04175C9.28091 7.0625 9.47925 7.26083 9.47925 7.5C9.47925 7.73917 9.28091 7.9375 9.04175 7.9375Z" fill="#67687E"/>
<path d="M6.70826 9.68751C6.59743 9.68751 6.48659 9.64667 6.39909 9.55917L4.64909 7.80917C4.47993 7.64001 4.47993 7.36001 4.64909 7.19084L6.39909 5.44084C6.56826 5.27167 6.84826 5.27167 7.01743 5.44084C7.18659 5.61001 7.18659 5.89001 7.01743 6.05917L5.57659 7.50001L7.01743 8.94084C7.18659 9.11001 7.18659 9.39001 7.01743 9.55917C6.92993 9.64667 6.81909 9.68751 6.70826 9.68751Z" fill="#67687E"/>
</svg>
