<svg width="14" height="14" viewBox="0 0 14 14" fill="none" xmlns="http://www.w3.org/2000/svg">
<path d="M10.5409 6.01984C10.4301 6.01984 10.3192 5.97901 10.2317 5.89151L7.00007 2.65984L3.7684 5.89151C3.59923 6.06068 3.31924 6.06068 3.15007 5.89151C2.9809 5.72234 2.9809 5.44234 3.15007 5.27318L6.6909 1.73234C6.86007 1.56318 7.14007 1.56318 7.30924 1.73234L10.8501 5.27318C11.0192 5.44234 11.0192 5.72234 10.8501 5.89151C10.7684 5.97901 10.6517 6.01984 10.5409 6.01984Z" fill="#2CFF73"/>
<path d="M7 12.3956C6.76083 12.3956 6.5625 12.1973 6.5625 11.9581V2.14062C6.5625 1.90146 6.76083 1.70312 7 1.70312C7.23917 1.70312 7.4375 1.90146 7.4375 2.14062V11.9581C7.4375 12.1973 7.23917 12.3956 7 12.3956Z" fill="#2CFF73"/>
</svg>
