<svg width="24" height="24" viewBox="0 0 24 24" fill="none" xmlns="http://www.w3.org/2000/svg">
<path d="M9.56994 18.8191C9.37994 18.8191 9.18994 18.7491 9.03994 18.5991L2.96994 12.5291C2.67994 12.2391 2.67994 11.7591 2.96994 11.4691L9.03994 5.39914C9.32994 5.10914 9.80994 5.10914 10.0999 5.39914C10.3899 5.68914 10.3899 6.16914 10.0999 6.45914L4.55994 11.9991L10.0999 17.5391C10.3899 17.8291 10.3899 18.3091 10.0999 18.5991C9.95994 18.7491 9.75994 18.8191 9.56994 18.8191Z" fill="white"/>
<path d="M20.5 12.75H3.67004C3.26004 12.75 2.92004 12.41 2.92004 12C2.92004 11.59 3.26004 11.25 3.67004 11.25H20.5C20.91 11.25 21.25 11.59 21.25 12C21.25 12.41 20.91 12.75 20.5 12.75Z" fill="white"/>
</svg>
