<svg width="28" height="13" viewBox="0 0 28 13" fill="none" xmlns="http://www.w3.org/2000/svg">
<path d="M26 5V9.22034C26.8491 8.86291 27.4012 8.0314 27.4012 7.11017C27.4012 6.18894 26.8491 5.35744 26 5Z" fill="white"/>
<path fill-rule="evenodd" clip-rule="evenodd" d="M4 0C1.79086 0 0 1.79086 0 4V9C0 11.2091 1.79086 13 4 13H21C23.2091 13 25 11.2091 25 9V4C25 1.79086 23.2091 0 21 0H4ZM8.65652 10H7.11355L10.1165 4.20898V4.12598H6.5618V2.94922H11.6009V4.14062L8.65652 10ZM18.2868 6.47949C18.2868 8.75488 17.2321 10.1807 15.489 10.1807C13.7507 10.1807 12.6911 8.75488 12.6911 6.47949V6.46973C12.6911 4.18945 13.7507 2.77344 15.489 2.77344C17.2321 2.77344 18.2868 4.18945 18.2868 6.46973V6.47949ZM14.1853 6.47949C14.1853 8.07129 14.6589 9.01367 15.489 9.01367C16.3239 9.01367 16.7976 8.07129 16.7976 6.47949V6.46973C16.7976 4.87305 16.3239 3.94043 15.489 3.94043C14.6589 3.94043 14.1853 4.87305 14.1853 6.46973V6.47949Z" fill="white"/>
</svg>
