<svg width="16" height="16" viewBox="0 0 16 16" fill="none" xmlns="http://www.w3.org/2000/svg">
<path d="M8.01357 13.6868C6.46024 13.6868 4.9069 13.4401 3.43357 12.9468C2.87357 12.7534 2.4469 12.3601 2.26024 11.8468C2.0669 11.3334 2.13357 10.7668 2.44024 10.2601L3.2069 8.98678C3.3669 8.72011 3.51357 8.18678 3.51357 7.87344V5.94678C3.51357 3.46678 5.53357 1.44678 8.01357 1.44678C10.4936 1.44678 12.5136 3.46678 12.5136 5.94678V7.87344C12.5136 8.18011 12.6602 8.72011 12.8202 8.99344L13.5802 10.2601C13.8669 10.7401 13.9202 11.3201 13.7269 11.8468C13.5336 12.3734 13.1136 12.7734 12.5869 12.9468C11.1202 13.4401 9.56691 13.6868 8.01357 13.6868ZM8.01357 2.44678C6.08691 2.44678 4.51357 4.01344 4.51357 5.94678V7.87344C4.51357 8.36011 4.31357 9.08011 4.0669 9.50011L3.30024 10.7734C3.15357 11.0201 3.11357 11.2801 3.20024 11.5001C3.28024 11.7268 3.48024 11.9001 3.75357 11.9934C6.54024 12.9268 9.49357 12.9268 12.2802 11.9934C12.5202 11.9134 12.7069 11.7334 12.7936 11.4934C12.8802 11.2534 12.8602 10.9934 12.7269 10.7734L11.9602 9.50011C11.7069 9.06678 11.5136 8.35344 11.5136 7.86678V5.94678C11.5136 4.01344 9.94691 2.44678 8.01357 2.44678Z" fill="white"/>
<path d="M9.25357 2.62662C9.20691 2.62662 9.16024 2.61995 9.11357 2.60662C8.92024 2.55329 8.73357 2.51329 8.55357 2.48662C7.98691 2.41329 7.44024 2.45329 6.92691 2.60662C6.74024 2.66662 6.54024 2.60662 6.41357 2.46662C6.28691 2.32662 6.24691 2.12662 6.32024 1.94662C6.59357 1.24662 7.26024 0.786621 8.02024 0.786621C8.78024 0.786621 9.4469 1.23995 9.72024 1.94662C9.7869 2.12662 9.75357 2.32662 9.6269 2.46662C9.5269 2.57329 9.3869 2.62662 9.25357 2.62662Z" fill="white"/>
<path d="M8.01318 15.2065C7.35318 15.2065 6.71318 14.9399 6.24652 14.4732C5.77985 14.0065 5.51318 13.3665 5.51318 12.7065H6.51318C6.51318 13.0999 6.67318 13.4865 6.95318 13.7665C7.23318 14.0465 7.61985 14.2065 8.01318 14.2065C8.83985 14.2065 9.51318 13.5332 9.51318 12.7065H10.5132C10.5132 14.0865 9.39318 15.2065 8.01318 15.2065Z" fill="white"/>
</svg>
