<svg width="12" height="12" viewBox="0 0 12 12" fill="none" xmlns="http://www.w3.org/2000/svg">
<path d="M10.9849 9V9.5C10.9849 10.325 10.9849 11 9.48486 11H2.48486C0.984863 11 0.984863 10.325 0.984863 9.5V9C0.984863 8.725 1.20986 8.5 1.48486 8.5H10.4849C10.7599 8.5 10.9849 8.725 10.9849 9Z" fill="white"/>
<path d="M7.20477 2.58989C7.22977 2.48989 7.24477 2.39489 7.24977 2.28989C7.26477 1.70989 6.90977 1.19989 6.34977 1.04989C5.50977 0.819886 4.74977 1.44989 4.74977 2.24989C4.74977 2.36989 4.76477 2.47989 4.79477 2.58989C2.98977 2.97489 1.63477 4.57989 1.63477 6.49989V7.24989C1.63477 7.52489 1.85977 7.74989 2.13477 7.74989H9.85977C10.1348 7.74989 10.3598 7.52489 10.3598 7.24989V6.49989C10.3598 4.57989 9.00977 2.97989 7.20477 2.58989ZM7.49977 5.87489H4.49977C4.29477 5.87489 4.12477 5.70489 4.12477 5.49989C4.12477 5.29489 4.29477 5.12489 4.49977 5.12489H7.49977C7.70477 5.12489 7.87477 5.29489 7.87477 5.49989C7.87477 5.70489 7.70477 5.87489 7.49977 5.87489Z" fill="white"/>
</svg>
