<svg xmlns="http://www.w3.org/2000/svg" width="24" height="24" viewBox="0 0 24 24" fill="none">
  <path opacity="0.4" d="M12 22C17.5228 22 22 17.5228 22 12C22 6.47715 17.5228 2 12 2C6.47715 2 2 6.47715 2 12C2 17.5228 6.47715 22 12 22Z" fill="white"/>
  <path d="M13.06 11.9994L15.36 9.69937C15.65 9.40937 15.65 8.92937 15.36 8.63938C15.07 8.34938 14.59 8.34938 14.3 8.63938L12 10.9394L9.69998 8.63938C9.40998 8.34938 8.92999 8.34938 8.63999 8.63938C8.34999 8.92937 8.34999 9.40937 8.63999 9.69937L10.94 11.9994L8.63999 14.2994C8.34999 14.5894 8.34999 15.0694 8.63999 15.3594C8.78999 15.5094 8.97999 15.5794 9.16999 15.5794C9.35999 15.5794 9.54998 15.5094 9.69998 15.3594L12 13.0594L14.3 15.3594C14.45 15.5094 14.64 15.5794 14.83 15.5794C15.02 15.5794 15.21 15.5094 15.36 15.3594C15.65 15.0694 15.65 14.5894 15.36 14.2994L13.06 11.9994Z" fill="white"/>
</svg>