<svg width="271" height="271" viewBox="0 0 271 271" fill="none" xmlns="http://www.w3.org/2000/svg">
<path d="M237.014 170.598C237.014 170.598 264.69 139.494 255.893 85.3725C247.095 31.2514 201.901 11.3114 171.929 21.7283C141.957 32.1452 135.197 50.2758 110.717 60.644C86.2379 71.0121 39.7222 63.8942 16.4616 98.72C-6.79896 133.546 22.897 191.253 60.7022 227.439C98.5074 263.624 194.979 240.97 237.014 170.598Z" fill="#C9B8FF"/>
<path opacity="0.7" d="M237.014 170.598C237.014 170.598 264.69 139.494 255.893 85.3725C247.095 31.2514 201.901 11.3114 171.929 21.7283C141.957 32.1452 135.197 50.2758 110.717 60.644C86.2379 71.0121 39.7222 63.8942 16.4616 98.72C-6.79896 133.546 22.897 191.253 60.7022 227.439C98.5074 263.624 194.979 240.97 237.014 170.598Z" fill="#272849"/>
<path d="M58.1348 107.871C58.0922 107.871 58.0503 107.86 58.0126 107.841C57.9749 107.821 57.9425 107.792 57.9181 107.757L55.5563 104.507L51.7644 105.758C51.71 105.775 51.6516 105.775 51.5973 105.758C51.543 105.74 51.4954 105.706 51.4611 105.661C51.4264 105.615 51.4076 105.559 51.4076 105.501C51.4076 105.443 51.4264 105.387 51.4611 105.341L53.8012 102.091L51.4394 98.8408C51.4056 98.7945 51.3873 98.7387 51.3872 98.6813C51.3871 98.624 51.4053 98.5681 51.439 98.5217C51.4727 98.4753 51.5203 98.4408 51.5749 98.4232C51.6295 98.4056 51.6883 98.4058 51.7428 98.4237L55.5346 99.648L57.8748 96.3978C57.9084 96.3512 57.9557 96.3163 58.01 96.2978C58.0644 96.2794 58.1232 96.2784 58.1781 96.2948C58.2321 96.3143 58.279 96.3495 58.3128 96.3958C58.3466 96.4421 58.3657 96.4975 58.3677 96.5549V100.553L62.1596 101.777C62.2149 101.794 62.2631 101.829 62.2972 101.876C62.3314 101.922 62.3496 101.979 62.3492 102.037C62.3488 102.093 62.3308 102.148 62.2978 102.194C62.2648 102.239 62.2184 102.273 62.1651 102.291L58.3732 103.543V107.546C58.3754 107.603 58.3584 107.659 58.325 107.705C58.2916 107.751 58.2437 107.785 58.189 107.801C58.1758 107.827 58.1574 107.851 58.1348 107.871ZM55.6592 103.938C55.7018 103.939 55.7435 103.949 55.7812 103.969C55.8188 103.989 55.8513 104.017 55.8759 104.052L57.864 106.76V103.397C57.8641 103.339 57.8818 103.284 57.9148 103.237C57.9478 103.191 57.9943 103.156 58.0481 103.137L61.2442 102.086L58.0427 101.056C57.9874 101.041 57.9389 101.007 57.9046 100.961C57.8703 100.915 57.8522 100.859 57.8531 100.802V97.4378L55.8868 100.146C55.853 100.193 55.8054 100.227 55.7509 100.244C55.6964 100.262 55.6378 100.262 55.5834 100.244L52.3765 99.2146L54.3646 101.923C54.3993 101.969 54.4181 102.025 54.4181 102.083C54.4181 102.141 54.3993 102.197 54.3646 102.243L52.3982 104.951L55.5942 103.9C55.6177 103.91 55.6397 103.922 55.6592 103.938Z" fill="#C9B8FF"/>
<path d="M141.058 63.6527C141.002 63.6531 140.947 63.6361 140.901 63.604L138.242 61.6701L135.587 63.604C135.54 63.6356 135.484 63.6525 135.427 63.6525C135.371 63.6525 135.315 63.6356 135.268 63.604C135.221 63.5708 135.186 63.5232 135.168 63.4685C135.151 63.4138 135.151 63.3549 135.17 63.3006L136.183 60.175L133.523 58.2411C133.478 58.207 133.444 58.1595 133.427 58.1052C133.41 58.0509 133.411 57.9927 133.429 57.9388C133.447 57.8849 133.481 57.838 133.528 57.8047C133.574 57.7715 133.629 57.7536 133.686 57.7536H136.969L137.987 54.628C138.009 54.5783 138.045 54.536 138.091 54.5064C138.137 54.4767 138.19 54.4609 138.244 54.4609C138.299 54.4609 138.352 54.4767 138.398 54.5064C138.443 54.536 138.479 54.5783 138.502 54.628L139.515 57.7536H142.797C142.855 57.7533 142.912 57.7715 142.958 57.8056C143.005 57.8397 143.04 57.8879 143.057 57.9432C143.075 57.9968 143.075 58.0545 143.057 58.1081C143.04 58.1617 143.006 58.2083 142.96 58.2411L140.3 60.175L141.318 63.3006C141.335 63.3556 141.334 63.4144 141.315 63.4687C141.297 63.5231 141.262 63.5704 141.215 63.604C141.169 63.6361 141.115 63.6531 141.058 63.6527ZM138.242 61.0634C138.3 61.063 138.357 61.082 138.404 61.1176L140.544 62.6722L139.726 60.1533C139.709 60.0989 139.709 60.0405 139.726 59.9862C139.744 59.9319 139.778 59.8843 139.823 59.85L141.99 58.2953H139.341C139.283 58.2957 139.227 58.2774 139.18 58.2433C139.133 58.2092 139.099 58.161 139.081 58.1057L138.263 55.5868L137.445 58.1057C137.428 58.161 137.393 58.2092 137.346 58.2433C137.3 58.2774 137.243 58.2957 137.185 58.2953H134.542L136.681 59.85C136.728 59.8832 136.763 59.9307 136.781 59.9854C136.798 60.0401 136.798 60.099 136.779 60.1533L135.961 62.6722L138.128 61.1176C138.16 61.0901 138.2 61.0714 138.242 61.0634Z" fill="#C9B8FF"/>
<path d="M84.4455 53.2357C84.3894 53.2354 84.3347 53.2185 84.2884 53.187L81.5149 51.1718L78.7468 53.187C78.7005 53.2208 78.6446 53.2391 78.5873 53.2391C78.5299 53.2392 78.474 53.2211 78.4276 53.1873C78.3813 53.1536 78.3468 53.106 78.3292 53.0514C78.3116 52.9968 78.3118 52.9381 78.3297 52.8836L79.4131 49.6334L76.6179 47.6129C76.5717 47.5791 76.5373 47.5315 76.5198 47.477C76.5023 47.4225 76.5025 47.3639 76.5204 47.3095C76.5394 47.2557 76.5746 47.2091 76.6212 47.1762C76.6677 47.1432 76.7234 47.1254 76.7804 47.1253H80.204L81.2874 43.8751C81.3045 43.8208 81.3383 43.7732 81.384 43.7391C81.4297 43.7051 81.485 43.6863 81.542 43.6856C81.5999 43.6852 81.6564 43.7034 81.7032 43.7375C81.75 43.7717 81.7846 43.8199 81.802 43.8751L82.8854 47.1253H86.3089C86.366 47.1254 86.4216 47.1432 86.4682 47.1762C86.5147 47.2091 86.5499 47.2557 86.5689 47.3095C86.5868 47.3639 86.587 47.4225 86.5695 47.477C86.552 47.5315 86.5177 47.5791 86.4714 47.6129L83.6979 49.628L84.7813 52.8782C84.7976 52.9327 84.797 52.9908 84.7796 53.045C84.7622 53.0991 84.7288 53.1467 84.6838 53.1815C84.6502 53.2069 84.6115 53.2248 84.5705 53.2342C84.5294 53.2435 84.4868 53.244 84.4455 53.2357ZM77.6146 47.667L79.8681 49.2921C79.9137 49.3264 79.9475 49.374 79.965 49.4283C79.9825 49.4827 79.9827 49.541 79.9656 49.5955L79.1043 52.2444L81.3578 50.6193C81.4042 50.5854 81.4601 50.5671 81.5176 50.5671C81.575 50.5671 81.631 50.5854 81.6774 50.6193L83.9309 52.2444L83.0696 49.5955C83.0525 49.541 83.0527 49.4827 83.0702 49.4283C83.0876 49.374 83.1215 49.3264 83.1671 49.2921L85.4205 47.667H82.6362C82.5783 47.6674 82.5218 47.6492 82.475 47.615C82.4282 47.5809 82.3936 47.5327 82.3762 47.4774L81.5149 44.8285L80.659 47.4774C80.6416 47.5327 80.607 47.5809 80.5602 47.615C80.5134 47.6492 80.4569 47.6674 80.399 47.667H77.6146Z" fill="#C9B8FF"/>
<path d="M186.084 214.403C186.03 214.403 185.976 214.387 185.932 214.356C185.887 214.325 185.853 214.281 185.835 214.229L184.562 211.033L181.128 211.261C181.07 211.265 181.012 211.25 180.964 211.219C180.915 211.187 180.878 211.141 180.857 211.087C180.836 211.034 180.832 210.976 180.846 210.921C180.859 210.866 180.89 210.816 180.933 210.779L183.582 208.579L182.309 205.383C182.287 205.33 182.283 205.272 182.297 205.216C182.311 205.161 182.342 205.111 182.386 205.074C182.43 205.038 182.484 205.016 182.542 205.012C182.599 205.008 182.656 205.022 182.704 205.053L185.613 206.889L188.262 204.695C188.307 204.661 188.362 204.643 188.419 204.643C188.476 204.643 188.531 204.661 188.576 204.695C188.626 204.724 188.665 204.768 188.686 204.821C188.708 204.874 188.711 204.933 188.695 204.988L187.845 208.325L190.759 210.161C190.807 210.192 190.844 210.238 190.864 210.292C190.885 210.345 190.888 210.404 190.873 210.459C190.86 210.515 190.829 210.564 190.785 210.601C190.741 210.637 190.686 210.657 190.629 210.66L187.195 210.887L186.35 214.218C186.335 214.275 186.303 214.325 186.258 214.362C186.214 214.399 186.158 214.421 186.1 214.424L186.084 214.403ZM184.741 210.481C184.795 210.481 184.848 210.497 184.893 210.528C184.937 210.559 184.971 210.603 184.99 210.654L186.03 213.254L186.718 210.546C186.733 210.49 186.766 210.44 186.81 210.404C186.855 210.367 186.91 210.344 186.967 210.34L189.762 210.161L187.39 208.661C187.341 208.631 187.304 208.586 187.284 208.533C187.263 208.481 187.26 208.423 187.276 208.368L187.964 205.66L185.797 207.453C185.75 207.486 185.695 207.504 185.637 207.504C185.58 207.504 185.524 207.486 185.478 207.453L183.11 205.958L184.145 208.563C184.166 208.616 184.169 208.674 184.156 208.73C184.142 208.785 184.112 208.835 184.069 208.872L181.902 210.665L184.697 210.481H184.741Z" fill="#C9B8FF"/>
<path d="M241.061 76.1934C241.023 76.193 240.986 76.1846 240.951 76.1687C240.917 76.1528 240.886 76.1299 240.861 76.1013L238.895 73.9779L236.257 75.1913C236.205 75.2155 236.148 75.2229 236.092 75.2121C236.037 75.2014 235.986 75.1732 235.948 75.1317C235.908 75.0895 235.883 75.0357 235.876 74.9781C235.869 74.9206 235.881 74.8624 235.91 74.8121L237.324 72.2878L235.357 70.1589C235.317 70.118 235.292 70.065 235.285 70.0082C235.278 69.9514 235.29 69.894 235.319 69.8447C235.347 69.7948 235.39 69.7548 235.441 69.7305C235.493 69.7062 235.55 69.6988 235.607 69.7093L238.45 70.251L239.864 67.7267C239.891 67.6762 239.934 67.6357 239.985 67.6113C240.037 67.5869 240.095 67.5799 240.151 67.5912C240.207 67.603 240.258 67.6317 240.297 67.6734C240.335 67.7151 240.36 67.7677 240.368 67.8242L240.709 70.7006L243.548 71.2423C243.604 71.2525 243.656 71.2807 243.695 71.3227C243.734 71.3647 243.758 71.4182 243.765 71.4752C243.772 71.5322 243.762 71.5902 243.735 71.6408C243.707 71.6915 243.665 71.7321 243.613 71.7569L240.98 72.9703L241.321 75.8467C241.328 75.9029 241.317 75.9597 241.29 76.0092C241.263 76.0587 241.221 76.0985 241.17 76.123C241.139 76.1543 241.102 76.1783 241.061 76.1934ZM238.96 73.3766C239.035 73.3785 239.107 73.4096 239.16 73.4633L240.693 75.1263L240.428 72.8782C240.418 72.8183 240.429 72.7569 240.458 72.7039C240.488 72.6508 240.534 72.6092 240.59 72.5857L242.643 71.6377L240.428 71.199C240.372 71.1872 240.321 71.1585 240.282 71.1168C240.244 71.0751 240.219 71.0224 240.211 70.966L239.946 68.7234L238.862 70.6952C238.835 70.7453 238.792 70.7852 238.741 70.8086C238.689 70.8321 238.631 70.8379 238.575 70.8252L236.359 70.3864L237.882 72.044C237.921 72.0866 237.945 72.1404 237.952 72.1977C237.959 72.255 237.947 72.3131 237.92 72.3636L236.836 74.3354L238.889 73.3874C238.914 73.3805 238.939 73.3769 238.965 73.3766H238.96Z" fill="#C9B8FF"/>
<path d="M90.9945 237.133C90.9375 237.133 90.882 237.114 90.8374 237.079L86.8018 234.148L82.7661 237.079C82.7209 237.113 82.6657 237.132 82.609 237.132C82.5523 237.132 82.4971 237.113 82.4519 237.079C82.4052 237.047 82.37 237 82.3514 236.947C82.3329 236.893 82.3321 236.835 82.349 236.781L83.8928 232.036L79.8572 229.105C79.8109 229.071 79.7766 229.024 79.7591 228.969C79.7416 228.915 79.7418 228.856 79.7597 228.802C79.778 228.747 79.813 228.7 79.8597 228.667C79.9064 228.634 79.9624 228.617 80.0197 228.618H85.0033L86.5472 223.872C86.564 223.813 86.5995 223.762 86.6484 223.725C86.6972 223.688 86.7568 223.668 86.818 223.668C86.8792 223.668 86.9388 223.688 86.9876 223.725C87.0365 223.762 87.072 223.813 87.0889 223.872L88.6273 228.618H93.6163C93.6727 228.619 93.7273 228.637 93.7726 228.671C93.8179 228.705 93.8515 228.752 93.8688 228.805C93.8861 228.859 93.8862 228.917 93.8691 228.97C93.852 229.024 93.8185 229.071 93.7734 229.105L89.7378 232.036L91.2816 236.781C91.2982 236.835 91.2978 236.892 91.2803 236.945C91.2629 236.999 91.2292 237.045 91.1841 237.079C91.1302 237.121 91.0623 237.14 90.9945 237.133ZM80.8485 229.138L84.3695 231.689C84.4164 231.722 84.4513 231.77 84.4689 231.824C84.4864 231.879 84.4858 231.938 84.467 231.992L83.1236 236.18L86.6447 233.623C86.6899 233.589 86.745 233.57 86.8018 233.57C86.8585 233.57 86.9136 233.589 86.9588 233.623L90.4799 236.18L89.1365 232.041C89.1194 231.987 89.1196 231.928 89.1371 231.874C89.1545 231.82 89.1884 231.772 89.234 231.738L92.755 229.186H88.4214C88.3635 229.187 88.307 229.168 88.2602 229.134C88.2134 229.1 88.1788 229.052 88.1614 228.997L86.818 224.858L85.4746 228.997C85.4572 229.052 85.4226 229.1 85.3758 229.134C85.329 229.168 85.2725 229.187 85.2146 229.186L80.8485 229.138Z" fill="#C9B8FF"/>
<path d="M232.703 176.798C232.646 176.798 232.59 176.779 232.546 176.743C232.498 176.711 232.463 176.663 232.445 176.608C232.427 176.553 232.429 176.494 232.448 176.44L234.03 171.565L229.881 168.547C229.834 168.514 229.8 168.466 229.783 168.412C229.765 168.357 229.765 168.298 229.783 168.244C229.802 168.19 229.837 168.144 229.884 168.111C229.93 168.078 229.986 168.06 230.043 168.06H235.173L236.755 163.185C236.777 163.135 236.813 163.093 236.859 163.063C236.904 163.033 236.958 163.018 237.012 163.018C237.066 163.018 237.12 163.033 237.165 163.063C237.211 163.093 237.247 163.135 237.269 163.185L238.857 168.06H243.986C244.043 168.06 244.098 168.078 244.143 168.111C244.189 168.144 244.223 168.191 244.241 168.244C244.261 168.298 244.262 168.358 244.244 168.412C244.227 168.467 244.191 168.515 244.143 168.547L239.994 171.565L241.581 176.44C241.598 176.494 241.598 176.553 241.581 176.607C241.563 176.662 241.529 176.709 241.484 176.743C241.438 176.778 241.382 176.797 241.324 176.797C241.266 176.797 241.21 176.778 241.164 176.743L237.015 173.732L232.865 176.743C232.819 176.78 232.762 176.799 232.703 176.798ZM230.872 168.602L234.507 171.24C234.553 171.273 234.588 171.321 234.607 171.375C234.625 171.429 234.626 171.488 234.61 171.543L233.217 175.817L236.852 173.179C236.899 173.145 236.955 173.127 237.012 173.127C237.069 173.127 237.125 173.145 237.172 173.179L240.807 175.817L239.42 171.543C239.401 171.489 239.4 171.43 239.418 171.375C239.436 171.32 239.47 171.273 239.517 171.24L243.152 168.602H238.656C238.599 168.601 238.544 168.582 238.498 168.548C238.452 168.514 238.419 168.466 238.402 168.412L237.015 164.133L235.623 168.401C235.607 168.456 235.574 168.505 235.528 168.539C235.482 168.574 235.425 168.592 235.368 168.591L230.872 168.602Z" fill="#C9B8FF"/>
<path d="M179.725 49.9157H179.698C179.641 49.9101 179.587 49.8867 179.544 49.8488C179.501 49.8108 179.472 49.7603 179.459 49.7044L178.376 44.5366L173.127 43.9949C173.07 43.9894 173.016 43.9659 172.973 43.928C172.931 43.89 172.901 43.8395 172.889 43.7836C172.879 43.7275 172.886 43.6697 172.909 43.6176C172.932 43.5655 172.97 43.5214 173.019 43.4911L177.601 40.8584L176.518 35.6906C176.505 35.6351 176.511 35.577 176.535 35.5251C176.558 35.4733 176.598 35.4306 176.648 35.4035C176.697 35.3737 176.754 35.3607 176.811 35.3666C176.867 35.3725 176.921 35.3969 176.962 35.436L180.879 38.9788L185.461 36.3461C185.51 36.3163 185.567 36.3033 185.624 36.3092C185.681 36.315 185.734 36.3394 185.776 36.3786C185.818 36.4163 185.847 36.4667 185.859 36.5223C185.871 36.5778 185.864 36.6357 185.841 36.6874L183.674 41.5085L187.59 45.0512C187.633 45.0903 187.661 45.1416 187.673 45.1979C187.685 45.2542 187.679 45.3128 187.655 45.3654C187.632 45.4164 187.593 45.4589 187.545 45.487C187.496 45.5152 187.44 45.5276 187.384 45.5225L182.13 44.9808L179.963 49.8019C179.936 49.8393 179.9 49.8692 179.858 49.8891C179.817 49.909 179.771 49.9181 179.725 49.9157ZM174.01 43.5182L178.625 44.0111C178.682 44.0186 178.736 44.0433 178.778 44.082C178.821 44.1208 178.851 44.1717 178.864 44.2278L179.817 48.751L181.718 44.5095C181.742 44.4575 181.781 44.4144 181.831 44.3862C181.881 44.358 181.938 44.3461 181.995 44.3524L186.61 44.8454L183.17 41.7523C183.128 41.7145 183.098 41.6642 183.087 41.6086C183.075 41.553 183.081 41.4951 183.105 41.4435L185.001 37.202L180.971 39.5421C180.921 39.5715 180.863 39.5842 180.806 39.5784C180.748 39.5725 180.694 39.5484 180.651 39.5096L177.211 36.3678L178.17 40.9126C178.182 40.9688 178.175 41.0272 178.152 41.0796C178.129 41.132 178.089 41.1759 178.04 41.2051L174.01 43.5182Z" fill="#C9B8FF"/>
<path d="M104.948 95.7182C104.441 95.7193 103.945 95.5699 103.523 95.289C103.101 95.0082 102.772 94.6084 102.577 94.1403C102.382 93.6722 102.331 93.1568 102.429 92.6594C102.527 92.1621 102.771 91.705 103.129 91.3461C103.487 90.9873 103.944 90.7427 104.441 90.6434C104.938 90.5441 105.453 90.5945 105.922 90.7883C106.39 90.982 106.791 91.3104 107.073 91.7319C107.354 92.1534 107.505 92.649 107.505 93.156C107.505 93.8346 107.236 94.4855 106.756 94.9658C106.277 95.4462 105.627 95.7168 104.948 95.7182ZM104.948 91.1354C104.548 91.1344 104.157 91.252 103.824 91.4733C103.491 91.6947 103.231 92.0099 103.077 92.379C102.924 92.7481 102.883 93.1545 102.96 93.5468C103.038 93.9391 103.23 94.2997 103.512 94.5828C103.794 94.8659 104.154 95.0589 104.546 95.1373C104.939 95.2157 105.345 95.176 105.715 95.0232C106.084 94.8705 106.4 94.6115 106.622 94.2791C106.845 93.9467 106.963 93.5558 106.963 93.156C106.963 92.621 106.751 92.1079 106.373 91.7292C105.996 91.3504 105.483 91.1369 104.948 91.1354Z" fill="#C9B8FF"/>
<path d="M110.04 48.505C109.708 48.505 109.383 48.4065 109.107 48.222C108.831 48.0375 108.616 47.7752 108.489 47.4684C108.362 47.1615 108.328 46.8239 108.393 46.4981C108.458 46.1724 108.618 45.8732 108.853 45.6383C109.088 45.4035 109.387 45.2435 109.712 45.1788C110.038 45.114 110.376 45.1472 110.683 45.2743C110.99 45.4014 111.252 45.6166 111.436 45.8928C111.621 46.169 111.719 46.4936 111.719 46.8258C111.719 47.2711 111.542 47.6982 111.228 48.0132C110.913 48.3281 110.485 48.505 110.04 48.505ZM110.04 45.6882C109.815 45.6882 109.595 45.7549 109.408 45.8799C109.221 46.0049 109.075 46.1826 108.989 46.3904C108.903 46.5983 108.881 46.827 108.924 47.0477C108.968 47.2683 109.077 47.471 109.236 47.6301C109.395 47.7892 109.598 47.8976 109.818 47.9415C110.039 47.9854 110.268 47.9628 110.475 47.8767C110.683 47.7906 110.861 47.6448 110.986 47.4577C111.111 47.2707 111.178 47.0507 111.178 46.8258C111.178 46.5241 111.058 46.2347 110.844 46.0214C110.631 45.808 110.342 45.6882 110.04 45.6882Z" fill="#C9B8FF"/>
<path d="M57.3814 78.8068C57.0836 78.8068 56.7924 78.7184 56.5448 78.553C56.2971 78.3875 56.1041 78.1523 55.9901 77.8771C55.8761 77.602 55.8463 77.2992 55.9044 77.0071C55.9625 76.7149 56.106 76.4466 56.3166 76.236C56.5272 76.0254 56.7955 75.882 57.0876 75.8239C57.3797 75.7658 57.6825 75.7956 57.9577 75.9096C58.2329 76.0235 58.4681 76.2166 58.6335 76.4642C58.799 76.7118 58.8873 77.003 58.8873 77.3008C58.8859 77.6998 58.7268 78.082 58.4447 78.3641C58.1626 78.6462 57.7804 78.8053 57.3814 78.8068ZM57.3814 76.3366C57.1907 76.3366 57.0043 76.3932 56.8457 76.4991C56.6872 76.6051 56.5636 76.7557 56.4906 76.9319C56.4176 77.108 56.3985 77.3019 56.4357 77.4889C56.4729 77.676 56.5648 77.8478 56.6996 77.9826C56.8345 78.1175 57.0063 78.2093 57.1933 78.2465C57.3803 78.2837 57.5742 78.2646 57.7504 78.1917C57.9266 78.1187 58.0772 77.9951 58.1831 77.8365C58.2891 77.678 58.3456 77.4915 58.3456 77.3008C58.3456 77.0451 58.2441 76.7999 58.0632 76.619C57.8824 76.4382 57.6371 76.3366 57.3814 76.3366Z" fill="#C9B8FF"/>
<path d="M29.7222 125.675C29.3903 125.674 29.0662 125.574 28.7907 125.389C28.5153 125.204 28.3009 124.941 28.1746 124.635C28.0483 124.328 28.0159 123.99 28.0813 123.665C28.1467 123.339 28.307 123.041 28.5421 122.806C28.7772 122.572 29.0764 122.413 29.402 122.348C29.7276 122.284 30.0649 122.317 30.3715 122.445C30.678 122.572 30.94 122.787 31.1242 123.063C31.3085 123.339 31.4069 123.664 31.4069 123.996C31.4069 124.217 31.3633 124.435 31.2785 124.64C31.1938 124.844 31.0696 125.029 30.9131 125.185C30.7566 125.341 30.5708 125.465 30.3665 125.549C30.1621 125.633 29.9432 125.676 29.7222 125.675ZM29.7222 122.858C29.4974 122.859 29.278 122.927 29.0917 123.052C28.9053 123.178 28.7604 123.356 28.6751 123.564C28.5898 123.772 28.5681 124.001 28.6126 124.221C28.6571 124.441 28.7658 124.643 28.9251 124.802C29.0844 124.96 29.2871 125.068 29.5077 125.112C29.7282 125.155 29.9566 125.132 30.1642 125.046C30.3717 124.96 30.5491 124.814 30.6738 124.627C30.7986 124.44 30.8652 124.22 30.8652 123.996C30.8659 123.845 30.8369 123.696 30.7797 123.557C30.7226 123.417 30.6385 123.291 30.5323 123.184C30.4261 123.077 30.2999 122.993 30.1608 122.935C30.0218 122.877 29.8727 122.847 29.7222 122.847V122.858Z" fill="#C9B8FF"/>
<path d="M122.212 228.897C121.569 228.897 120.941 228.706 120.406 228.349C119.872 227.992 119.455 227.484 119.209 226.89C118.963 226.297 118.899 225.643 119.024 225.013C119.15 224.382 119.459 223.803 119.914 223.348C120.368 222.894 120.948 222.584 121.578 222.459C122.209 222.334 122.862 222.398 123.456 222.644C124.05 222.89 124.557 223.306 124.915 223.841C125.272 224.375 125.462 225.004 125.462 225.647C125.462 226.509 125.12 227.335 124.51 227.945C123.901 228.554 123.074 228.897 122.212 228.897ZM122.212 222.911C121.676 222.911 121.153 223.07 120.707 223.368C120.262 223.665 119.915 224.088 119.71 224.583C119.505 225.078 119.451 225.623 119.556 226.148C119.66 226.673 119.918 227.156 120.297 227.535C120.676 227.914 121.158 228.172 121.684 228.276C122.209 228.381 122.754 228.327 123.249 228.122C123.744 227.917 124.167 227.57 124.464 227.124C124.762 226.679 124.921 226.155 124.921 225.62C124.921 224.901 124.635 224.212 124.127 223.704C123.619 223.196 122.93 222.911 122.212 222.911Z" fill="#C9B8FF"/>
<path d="M244.999 112.631C244.666 112.632 244.34 112.534 244.062 112.35C243.784 112.165 243.567 111.903 243.439 111.595C243.311 111.287 243.276 110.948 243.341 110.621C243.405 110.294 243.565 109.993 243.801 109.757C244.036 109.521 244.336 109.36 244.663 109.294C244.99 109.229 245.329 109.262 245.637 109.389C245.945 109.517 246.209 109.733 246.394 110.01C246.58 110.287 246.678 110.613 246.678 110.946C246.677 111.392 246.5 111.819 246.185 112.134C245.871 112.45 245.445 112.628 244.999 112.631ZM244.999 109.809C244.773 109.808 244.551 109.874 244.362 109.999C244.173 110.124 244.026 110.303 243.939 110.512C243.852 110.721 243.829 110.951 243.872 111.173C243.916 111.396 244.025 111.6 244.186 111.76C244.346 111.92 244.55 112.029 244.772 112.073C244.994 112.117 245.225 112.094 245.434 112.007C245.643 111.92 245.821 111.772 245.946 111.583C246.072 111.395 246.138 111.173 246.137 110.946C246.135 110.645 246.015 110.357 245.802 110.144C245.589 109.931 245.3 109.81 244.999 109.809Z" fill="#C9B8FF"/>
<path d="M215.227 44.9624C214.72 44.9634 214.224 44.8141 213.802 44.5332C213.38 44.2523 213.051 43.8525 212.856 43.3844C212.661 42.9163 212.61 42.401 212.708 41.9036C212.806 41.4062 213.05 40.9492 213.408 40.5903C213.766 40.2314 214.222 39.9868 214.72 39.8875C215.217 39.7882 215.732 39.8386 216.201 40.0324C216.669 40.2262 217.07 40.5546 217.351 40.9761C217.633 41.3975 217.784 41.8931 217.784 42.4001C217.784 43.0787 217.514 43.7296 217.035 44.21C216.556 44.6903 215.905 44.9609 215.227 44.9624ZM215.227 40.3796C214.827 40.3785 214.436 40.4961 214.103 40.7175C213.77 40.9388 213.51 41.254 213.356 41.6231C213.202 41.9922 213.162 42.3987 213.239 42.791C213.316 43.1833 213.508 43.5438 213.791 43.8269C214.073 44.1101 214.433 44.303 214.825 44.3814C215.217 44.4598 215.624 44.4201 215.993 44.2674C216.363 44.1146 216.679 43.8556 216.901 43.5232C217.123 43.1908 217.242 42.8 217.242 42.4001C217.236 41.8689 217.022 41.3614 216.644 40.9873C216.267 40.6132 215.758 40.4026 215.227 40.4013V40.3796Z" fill="#C9B8FF"/>
<path d="M219.1 81.9778C218.733 81.9778 218.374 81.8688 218.068 81.6646C217.762 81.4605 217.524 81.1703 217.384 80.8308C217.243 80.4913 217.206 80.1177 217.278 79.7573C217.35 79.3968 217.527 79.0658 217.786 78.8059C218.046 78.5461 218.377 78.3691 218.738 78.2974C219.098 78.2257 219.472 78.2625 219.811 78.4032C220.151 78.5438 220.441 78.7819 220.645 79.0875C220.849 79.393 220.958 79.7523 220.958 80.1197C220.957 80.6121 220.761 81.0839 220.412 81.432C220.064 81.7801 219.593 81.9764 219.1 81.9778ZM219.1 78.8088C218.84 78.8088 218.585 78.8862 218.368 79.0311C218.152 79.1759 217.983 79.3818 217.884 79.6227C217.784 79.8635 217.758 80.1285 217.81 80.384C217.861 80.6395 217.987 80.874 218.171 81.0579C218.356 81.2417 218.591 81.3667 218.847 81.4169C219.102 81.467 219.367 81.4402 219.608 81.3397C219.848 81.2393 220.053 81.0697 220.197 80.8525C220.341 80.6354 220.418 80.3803 220.417 80.1197C220.417 79.9471 220.382 79.7762 220.316 79.6168C220.25 79.4574 220.153 79.3127 220.031 79.1909C219.908 79.0691 219.763 78.9726 219.604 78.9071C219.444 78.8415 219.273 78.8081 219.1 78.8088Z" fill="#C9B8FF"/>
<path d="M26.3745 207.407C26.0075 207.405 25.6494 207.294 25.3452 207.089C25.0411 206.884 24.8047 206.593 24.6657 206.253C24.5267 205.913 24.4915 205.54 24.5644 205.18C24.6373 204.821 24.8151 204.491 25.0754 204.232C25.3356 203.973 25.6667 203.797 26.0269 203.726C26.387 203.656 26.76 203.693 27.0989 203.834C27.4378 203.975 27.7273 204.213 27.931 204.518C28.1347 204.824 28.2434 205.182 28.2434 205.549C28.2434 205.794 28.195 206.037 28.1009 206.263C28.0069 206.489 27.8691 206.694 27.6954 206.867C27.5217 207.04 27.3156 207.176 27.0889 207.269C26.8622 207.362 26.6194 207.409 26.3745 207.407ZM26.3745 204.233C26.1147 204.235 25.8612 204.314 25.6462 204.46C25.4312 204.606 25.2641 204.812 25.1662 205.053C25.0682 205.294 25.0437 205.558 25.0957 205.813C25.1477 206.067 25.2739 206.301 25.4584 206.484C25.6429 206.667 25.8775 206.791 26.1325 206.841C26.3876 206.891 26.6517 206.864 26.8916 206.764C27.1315 206.665 27.3364 206.496 27.4806 206.28C27.6248 206.063 27.7017 205.809 27.7017 205.549C27.7031 205.375 27.6698 205.201 27.6036 205.04C27.5374 204.878 27.4397 204.731 27.3162 204.608C27.1927 204.484 27.0458 204.387 26.8841 204.32C26.7225 204.254 26.5492 204.221 26.3745 204.222V204.233Z" fill="#C9B8FF"/>
<path d="M231.435 208.463C230.997 208.464 230.57 208.336 230.205 208.093C229.841 207.851 229.557 207.506 229.389 207.103C229.221 206.699 229.176 206.254 229.261 205.825C229.346 205.396 229.556 205.002 229.865 204.692C230.174 204.383 230.567 204.172 230.996 204.086C231.425 204 231.87 204.044 232.274 204.211C232.678 204.378 233.024 204.661 233.267 205.025C233.51 205.388 233.64 205.816 233.64 206.253C233.64 206.838 233.407 207.4 232.994 207.814C232.581 208.228 232.02 208.462 231.435 208.463ZM231.435 204.585C231.105 204.584 230.781 204.681 230.506 204.863C230.231 205.046 230.017 205.306 229.89 205.611C229.762 205.916 229.729 206.251 229.792 206.575C229.856 206.899 230.015 207.197 230.248 207.431C230.481 207.665 230.778 207.824 231.102 207.889C231.426 207.954 231.761 207.921 232.067 207.795C232.372 207.669 232.633 207.455 232.816 207.181C233 206.906 233.098 206.583 233.098 206.253C233.098 205.812 232.923 205.388 232.611 205.075C232.299 204.763 231.876 204.586 231.435 204.585Z" fill="#C9B8FF"/>
<path d="M88.5617 190.494C88.1246 190.494 87.6973 190.365 87.3338 190.122C86.9704 189.879 86.6871 189.534 86.5198 189.13C86.3525 188.726 86.3088 188.282 86.394 187.853C86.4793 187.424 86.6898 187.031 86.9989 186.722C87.308 186.412 87.7018 186.202 88.1305 186.117C88.5592 186.031 89.0036 186.075 89.4075 186.242C89.8113 186.41 90.1565 186.693 90.3994 187.056C90.6422 187.42 90.7718 187.847 90.7718 188.284C90.7718 188.871 90.539 189.433 90.1245 189.847C89.71 190.262 89.1479 190.494 88.5617 190.494ZM88.5617 186.616C88.2317 186.616 87.9091 186.714 87.6348 186.897C87.3604 187.08 87.1466 187.341 87.0203 187.646C86.894 187.951 86.8609 188.286 86.9253 188.61C86.9897 188.933 87.1486 189.231 87.3819 189.464C87.6153 189.697 87.9126 189.856 88.2362 189.921C88.5598 189.985 88.8953 189.952 89.2002 189.826C89.5051 189.7 89.7656 189.486 89.9489 189.211C90.1323 188.937 90.2301 188.614 90.2301 188.284C90.2301 187.842 90.0544 187.417 89.7415 187.105C89.4286 186.792 89.0042 186.616 88.5617 186.616Z" fill="#C9B8FF"/>
<path d="M250.811 164.774C250.583 164.775 250.359 164.709 250.169 164.583C249.978 164.456 249.829 164.277 249.741 164.066C249.653 163.855 249.629 163.623 249.673 163.399C249.717 163.175 249.827 162.969 249.988 162.807C250.149 162.645 250.355 162.534 250.579 162.489C250.803 162.444 251.035 162.467 251.246 162.554C251.457 162.641 251.638 162.789 251.765 162.979C251.892 163.169 251.96 163.392 251.96 163.621C251.958 163.925 251.837 164.217 251.622 164.433C251.407 164.649 251.116 164.772 250.811 164.774ZM250.811 163.008C250.69 163.007 250.571 163.042 250.47 163.109C250.368 163.176 250.289 163.271 250.242 163.383C250.195 163.494 250.182 163.618 250.205 163.737C250.228 163.856 250.286 163.965 250.371 164.051C250.456 164.138 250.565 164.196 250.684 164.221C250.803 164.245 250.927 164.233 251.039 164.187C251.151 164.14 251.247 164.062 251.314 163.961C251.382 163.86 251.418 163.742 251.418 163.621C251.416 163.46 251.352 163.306 251.239 163.191C251.126 163.077 250.972 163.011 250.811 163.008Z" fill="#C9B8FF"/>
<path d="M147.228 246.512C146.929 246.513 146.637 246.425 146.389 246.26C146.14 246.095 145.947 245.86 145.832 245.585C145.717 245.309 145.687 245.006 145.745 244.713C145.803 244.421 145.946 244.152 146.157 243.941C146.368 243.73 146.637 243.587 146.93 243.529C147.222 243.471 147.526 243.501 147.801 243.616C148.076 243.73 148.312 243.924 148.477 244.173C148.642 244.421 148.729 244.713 148.728 245.011C148.727 245.409 148.568 245.79 148.287 246.071C148.006 246.352 147.625 246.51 147.228 246.512ZM147.228 244.047C147.037 244.046 146.85 244.102 146.69 244.207C146.531 244.312 146.407 244.462 146.333 244.639C146.259 244.815 146.239 245.009 146.276 245.196C146.312 245.384 146.404 245.556 146.538 245.691C146.673 245.827 146.845 245.919 147.032 245.957C147.219 245.994 147.413 245.975 147.59 245.903C147.766 245.83 147.917 245.706 148.024 245.548C148.13 245.389 148.186 245.202 148.186 245.011C148.186 244.757 148.086 244.512 147.906 244.331C147.726 244.151 147.482 244.049 147.228 244.047Z" fill="#C9B8FF"/>
<path d="M31.8839 171.836L28.2437 172.952L38.2922 195.844C38.2922 195.844 76.2545 181.05 91.0483 172.952C105.842 164.853 117.592 161.896 117.592 161.896C114.173 156.305 110.799 148.462 109.352 143.018L31.8839 171.836Z" fill="#C9B8FF"/>
<path d="M38.3028 196.095C38.2509 196.094 38.2003 196.078 38.1571 196.049C38.1138 196.021 38.0798 195.98 38.0591 195.932L28.0105 173.062C27.9946 173.028 27.9863 172.991 27.9863 172.953C27.9863 172.916 27.9946 172.879 28.0105 172.845C28.0263 172.81 28.0494 172.779 28.0784 172.753C28.1074 172.728 28.1415 172.71 28.1785 172.699L31.797 171.583L109.26 142.765C109.295 142.75 109.333 142.742 109.371 142.742C109.409 142.742 109.447 142.75 109.482 142.765C109.515 142.782 109.543 142.806 109.567 142.835C109.59 142.864 109.607 142.897 109.618 142.932C111.107 148.544 114.493 156.274 117.824 161.74C117.844 161.777 117.855 161.818 117.855 161.859C117.855 161.901 117.844 161.942 117.824 161.979C117.808 162.018 117.783 162.053 117.751 162.081C117.719 162.11 117.681 162.13 117.64 162.141C117.521 162.174 105.723 165.191 91.1564 173.176C76.5901 181.16 38.7524 195.927 38.3732 196.079C38.3507 196.088 38.327 196.093 38.3028 196.095ZM28.6281 173.127L38.4491 195.499C41.6993 194.215 76.9097 180.375 90.9289 172.715C104.173 165.473 115.11 162.293 117.185 161.729C113.776 155.963 111.089 149.799 109.184 143.377L31.9812 172.087L28.6281 173.127Z" fill="#C9B8FF"/>
<path d="M116.183 133.6C116.183 133.6 105.019 139.461 96.3623 143.648C87.7059 147.835 67.3326 153.399 59.2396 158.16C51.1467 162.922 28.5361 168.469 28.5361 168.469L38.2867 193.587C38.2867 193.587 74.0389 180.191 85.7396 175.446C97.4403 170.701 122.575 156.188 123.426 155.625C124.276 155.062 116.183 133.6 116.183 133.6Z" fill="#441FB2"/>
<path d="M38.3029 193.884C38.2488 193.884 38.1961 193.867 38.1517 193.836C38.1073 193.805 38.0732 193.761 38.0537 193.711L28.3031 168.587C28.2884 168.552 28.2808 168.514 28.2808 168.476C28.2808 168.438 28.2884 168.4 28.3031 168.365C28.322 168.331 28.3475 168.301 28.3782 168.276C28.4089 168.252 28.4442 168.234 28.4819 168.224C28.7094 168.17 51.1466 162.596 59.115 157.932C63.6815 155.256 72.0616 152.341 80.1654 149.519C86.4979 147.314 92.4782 145.234 96.2593 143.409C104.807 139.27 115.955 133.42 116.069 133.36C116.104 133.345 116.142 133.338 116.18 133.338C116.218 133.338 116.256 133.345 116.291 133.36C116.327 133.374 116.359 133.396 116.386 133.423C116.413 133.45 116.434 133.482 116.448 133.517C116.448 133.572 118.496 138.934 120.392 144.351C124.303 155.434 123.897 155.727 123.604 155.9C122.846 156.404 97.5648 171.014 85.8695 175.743C74.2771 180.439 38.7417 193.76 38.4112 193.89C38.3752 193.897 38.3379 193.896 38.3029 193.884ZM28.899 168.679L38.46 193.261C41.6722 192.059 74.5859 179.719 85.6582 175.217C97.126 170.575 121.703 156.41 123.23 155.462C123.398 154.194 118.978 141.8 116.037 133.978C114.276 134.904 104.298 140.11 96.4814 143.891C92.6895 145.733 86.682 147.818 80.3333 150.028C72.2512 152.834 63.8982 155.743 59.375 158.392C51.8454 162.807 31.6075 167.996 28.899 168.679Z" fill="#C9B8FF"/>
<path d="M202.188 168.623C204.453 148.802 192.714 130.038 174.02 123.12C157.103 116.842 137.39 111.327 129.601 116.029C114.807 124.962 111.459 142.269 111.459 142.269L109.368 143.006C110.208 146.18 110.452 148.163 111.714 151.581C114.637 159.217 119.744 165.823 126.399 170.573C130.419 173.471 135.397 176.315 140.749 177.686C182.053 188.281 170.894 174.338 170.894 174.338L171.729 153.401C171.729 153.401 174.524 147.822 177.871 150.612C181.219 153.401 183.716 162.778 185.964 168.195C190.098 178.135 197.34 176.126 200.72 173.699C201.408 173.217 201.88 171.326 202.188 168.623Z" fill="#191A2F"/>
<path d="M164.269 181.957C158.939 181.957 151.057 180.624 140.678 177.964C136.036 176.773 131.177 174.362 126.242 170.803C119.536 166.025 114.394 159.37 111.464 151.676C110.758 149.78 110.194 147.833 109.78 145.852C109.579 144.986 109.373 144.092 109.103 143.073C109.086 143.008 109.094 142.939 109.125 142.879C109.156 142.819 109.208 142.773 109.271 142.748L111.204 142.033C111.584 140.305 115.446 124.211 129.443 115.761C137.498 110.886 158.153 116.92 174.101 122.83C183.279 126.182 191.064 132.521 196.206 140.829C201.348 149.137 203.548 158.932 202.454 168.642C202.102 171.718 201.603 173.398 200.877 173.912C199.924 174.6 196.517 176.74 192.66 175.646C189.735 174.812 187.394 172.341 185.715 168.295C185.108 166.838 184.491 165.11 183.835 163.279C182.08 158.371 180.092 152.813 177.698 150.82C177.406 150.542 177.053 150.337 176.667 150.222C176.281 150.106 175.874 150.083 175.477 150.153C173.619 150.538 172.227 153.084 171.999 153.474L171.165 174.254C171.55 174.763 173.413 177.428 172.053 179.535C171.013 181.155 168.408 181.957 164.269 181.957ZM109.688 143.187C109.931 144.119 110.121 144.948 110.305 145.749C112.397 155.722 118.208 164.523 126.556 170.364C131.431 173.885 136.236 176.263 140.814 177.439C163.468 183.246 170.065 181.632 171.593 179.254C172.861 177.293 170.705 174.546 170.683 174.519C170.661 174.495 170.645 174.467 170.635 174.436C170.625 174.405 170.621 174.373 170.623 174.34L171.458 153.404C171.463 153.366 171.474 153.329 171.49 153.295C171.555 153.165 173.115 150.105 175.363 149.633C175.845 149.54 176.341 149.563 176.812 149.7C177.283 149.836 177.715 150.083 178.072 150.419C180.58 152.504 182.595 158.143 184.372 163.111C185.027 164.936 185.645 166.659 186.246 168.105C187.871 171.989 190.076 174.357 192.838 175.147C196.457 176.177 199.686 174.145 200.59 173.495C200.986 173.214 201.538 172.136 201.944 168.62C203.024 159.031 200.85 149.357 195.771 141.152C190.692 132.947 183.003 126.687 173.939 123.377C151.258 114.965 135.976 112.505 129.747 116.265C115.235 125.029 111.762 142.153 111.73 142.326C111.722 142.371 111.702 142.413 111.672 142.448C111.643 142.483 111.605 142.51 111.562 142.526L109.688 143.187Z" fill="#191A2F"/>
<path d="M219.268 105.089C208.705 93.7132 195.265 85.3331 180.894 79.6561C164.009 72.9824 149.394 71.4439 135.478 84.6668C127.728 92.0423 121.245 100.644 116.291 110.127C112.694 117.012 108.073 125.836 108.025 133.794C107.911 150.451 120.776 166.295 135.305 173.143C143.176 176.859 151.594 178.532 160.098 180.087C164.524 180.894 172.557 182.709 175.488 177.817C178.326 173.083 171.696 143.75 174.854 141.524C178.012 139.297 185.266 160.136 188.104 167.075C190.943 174.015 196.62 176.853 200.72 173.7C204.821 170.548 223.748 150.039 229.43 131.746C232.372 122.277 226.288 112.618 219.268 105.089Z" fill="#C9B8FF"/>
<path d="M225.861 118.089C227.963 124.985 222.865 143.581 215.363 154.079C207.86 164.578 200.791 171.544 195.861 166.674C190.932 161.804 176.669 120.797 171.279 120.797C165.889 120.797 172.178 156.49 171.279 164.588C170.38 172.687 163.479 175.384 146.085 167.297C128.691 159.209 128.94 121.502 137.667 102.607C146.393 83.7126 150.012 76.7139 150.012 76.7139L150.814 75.6738C145.576 77.066 140.494 79.8991 135.505 84.639C127.755 92.0145 121.273 100.616 116.318 110.099C112.721 116.984 108.101 125.808 108.052 133.766C107.938 150.423 120.804 166.268 135.332 173.115C143.203 176.831 151.621 178.505 160.126 180.059C164.551 180.866 172.585 182.681 175.515 177.79C178.354 173.055 171.723 143.722 174.881 141.496C178.04 139.269 185.293 160.108 188.131 167.048C190.97 173.987 196.647 176.825 200.748 173.673C204.848 170.52 223.775 150.011 229.458 131.718C231.987 123.593 227.833 115.283 222.172 108.317C223.585 111.502 224.816 114.764 225.861 118.089Z" fill="#C9B8FF"/>
<path d="M167.964 181.349C165.557 181.278 163.162 180.99 160.808 180.488L160.049 180.347C151.035 178.722 142.942 177.042 135.191 173.38C121.464 166.88 107.635 151.214 107.754 133.782C107.808 125.781 112.353 117.076 116.004 110.083L116.053 109.996C121.009 100.475 127.509 91.8403 135.288 84.4443C150.402 70.0892 166.165 73.5236 180.991 79.3794C196.495 85.5006 209.436 94.0811 219.452 104.877C228.699 114.828 232.139 123.896 229.674 131.838C223.764 150.889 204.382 171.224 200.877 173.922C200.111 174.534 199.21 174.954 198.249 175.147C197.288 175.34 196.295 175.301 195.352 175.033C192.324 174.215 189.518 171.284 187.844 167.189C187.373 166.04 186.788 164.529 186.11 162.779C183.18 155.196 178.278 142.504 175.569 141.653C175.475 141.62 175.374 141.609 175.275 141.624C175.175 141.638 175.081 141.676 175 141.734C173.548 142.747 174.491 151.247 175.32 158.738C176.23 166.978 177.172 175.488 175.71 177.925C174.128 180.596 171.111 181.349 167.964 181.349ZM159.221 74.8724C151.333 74.8724 143.403 77.4834 135.662 84.8343C127.931 92.1928 121.47 100.779 116.54 110.245L116.497 110.332C112.873 117.277 108.371 125.917 108.306 133.788C108.187 150.992 121.849 166.479 135.429 172.888C143.127 176.522 151.182 178.174 160.158 179.81L160.916 179.951C165.282 180.769 172.59 182.118 175.266 177.671C176.636 175.39 175.704 166.967 174.8 158.82C173.678 148.674 173.115 142.433 174.713 141.312C174.861 141.206 175.032 141.137 175.212 141.111C175.392 141.084 175.576 141.101 175.748 141.16C178.705 142.059 183.478 154.41 186.641 162.584C187.313 164.329 187.898 165.835 188.364 166.983C189.989 170.921 192.649 173.733 195.514 174.507C196.377 174.753 197.285 174.789 198.164 174.613C199.043 174.437 199.868 174.053 200.568 173.494C204.777 170.244 223.607 149.627 229.181 131.675C231.581 123.934 228.184 115.045 219.078 105.246C209.106 94.509 196.229 85.9773 180.807 79.8832C173.765 77.1042 166.512 74.8724 159.221 74.8724Z" fill="#191A2F"/>
<path d="M178.224 141.417C178.166 141.416 178.11 141.398 178.063 141.364C178.016 141.329 177.982 141.282 177.964 141.227C177.964 141.227 177.714 140.431 177.324 139.342C177.311 139.308 177.306 139.273 177.307 139.237C177.308 139.201 177.317 139.166 177.332 139.134C177.347 139.101 177.368 139.072 177.395 139.049C177.422 139.025 177.453 139.007 177.487 138.995C177.554 138.972 177.628 138.976 177.693 139.007C177.758 139.037 177.808 139.091 177.834 139.158C178.229 140.241 178.478 141.054 178.484 141.064C178.504 141.133 178.497 141.208 178.463 141.271C178.43 141.335 178.373 141.383 178.305 141.406L178.224 141.417Z" fill="#191A2F"/>
<path d="M168.598 179.768H168.284C168.212 179.768 168.143 179.739 168.092 179.688C168.041 179.638 168.013 179.569 168.013 179.497C168.013 179.425 168.041 179.356 168.092 179.305C168.143 179.254 168.212 179.226 168.284 179.226C168.384 179.215 168.486 179.215 168.587 179.226C169.945 179.237 171.303 179.178 172.655 179.047C172.726 179.038 172.798 179.057 172.855 179.101C172.912 179.145 172.949 179.209 172.958 179.28C172.963 179.316 172.96 179.352 172.951 179.386C172.941 179.421 172.925 179.453 172.903 179.482C172.881 179.51 172.853 179.533 172.822 179.551C172.79 179.568 172.756 179.579 172.72 179.583C171.35 179.719 169.974 179.78 168.598 179.768Z" fill="#191A2F"/>
<path d="M164.302 179.61C155.405 178.973 146.709 176.663 138.669 172.801C120.397 163.993 115.506 155.299 112.055 147.152C111.046 144.647 110.381 142.018 110.078 139.335C110.073 139.299 110.076 139.263 110.085 139.229C110.095 139.194 110.111 139.162 110.134 139.133C110.156 139.105 110.183 139.082 110.215 139.064C110.246 139.047 110.281 139.036 110.316 139.032C110.351 139.027 110.387 139.029 110.42 139.039C110.454 139.048 110.486 139.064 110.514 139.086C110.542 139.107 110.565 139.134 110.582 139.165C110.599 139.196 110.61 139.229 110.614 139.264C110.908 141.9 111.563 144.483 112.559 146.94C116.107 155.331 120.787 163.581 138.907 172.314C146.875 176.153 155.497 178.454 164.318 179.096C164.39 179.096 164.459 179.124 164.51 179.175C164.561 179.226 164.589 179.295 164.589 179.366C164.589 179.438 164.561 179.507 164.51 179.558C164.459 179.609 164.39 179.637 164.318 179.637L164.302 179.61Z" fill="#191A2F"/>
<path d="M110.067 136.313C109.998 136.313 109.932 136.287 109.881 136.239C109.831 136.192 109.801 136.127 109.796 136.058C109.648 133.13 109.75 130.194 110.1 127.283C110.112 127.212 110.151 127.149 110.208 127.107C110.266 127.064 110.338 127.046 110.409 127.055C110.479 127.066 110.542 127.104 110.584 127.16C110.627 127.217 110.645 127.288 110.636 127.358C110.29 130.234 110.19 133.133 110.338 136.026C110.341 136.097 110.316 136.166 110.268 136.219C110.221 136.271 110.154 136.303 110.084 136.307L110.067 136.313Z" fill="#191A2F"/>
<path d="M196.213 173.558C195.715 173.561 195.221 173.469 194.756 173.288C194.69 173.261 194.636 173.209 194.608 173.143C194.579 173.077 194.578 173.002 194.605 172.936C194.631 172.869 194.683 172.815 194.749 172.787C194.815 172.758 194.89 172.757 194.957 172.784C196.398 173.326 198.207 172.887 200.645 171.332C200.706 171.294 200.779 171.282 200.849 171.298C200.92 171.314 200.98 171.358 201.018 171.419C201.056 171.48 201.069 171.554 201.052 171.624C201.036 171.694 200.993 171.754 200.932 171.793C199.068 172.979 197.53 173.558 196.213 173.558Z" fill="#191A2F"/>
<path d="M193.272 172.195C193.198 172.193 193.128 172.161 193.077 172.108C191.966 170.927 191.132 169.167 190.163 167.13C189.87 166.512 189.567 165.873 189.242 165.223C186.365 159.47 181.533 147.889 181.485 147.77C181.457 147.703 181.458 147.628 181.486 147.561C181.514 147.495 181.567 147.442 181.634 147.415C181.7 147.387 181.775 147.388 181.842 147.416C181.908 147.444 181.961 147.497 181.988 147.564C182.032 147.677 186.864 159.248 189.729 164.985C190.054 165.635 190.358 166.274 190.65 166.897C191.598 168.89 192.421 170.618 193.472 171.734C193.498 171.76 193.518 171.789 193.532 171.822C193.545 171.856 193.552 171.891 193.552 171.927C193.552 171.962 193.545 171.998 193.532 172.031C193.518 172.064 193.498 172.094 193.472 172.119C193.446 172.145 193.415 172.165 193.38 172.178C193.346 172.192 193.309 172.197 193.272 172.195Z" fill="#191A2F"/>
<path d="M173.96 145.677C173.898 145.677 173.837 145.656 173.789 145.616C173.741 145.577 173.707 145.522 173.695 145.461C173.467 144.285 171.469 133.911 172.834 132.254C172.901 132.165 172.987 132.093 173.087 132.043C173.187 131.993 173.296 131.967 173.408 131.967C173.792 131.967 174.963 131.967 177.108 137.254C177.122 137.286 177.129 137.322 177.129 137.357C177.13 137.393 177.123 137.428 177.109 137.461C177.095 137.494 177.075 137.523 177.05 137.548C177.025 137.573 176.994 137.593 176.961 137.606C176.928 137.619 176.893 137.626 176.857 137.625C176.822 137.625 176.787 137.617 176.754 137.603C176.721 137.589 176.692 137.569 176.667 137.543C176.642 137.517 176.622 137.487 176.609 137.454C174.795 132.991 173.765 132.508 173.408 132.508C173.376 132.509 173.345 132.518 173.318 132.534C173.29 132.551 173.267 132.573 173.251 132.601C172.341 133.684 173.337 140.834 174.226 145.358C174.234 145.392 174.234 145.428 174.228 145.463C174.221 145.498 174.208 145.531 174.188 145.56C174.168 145.59 174.143 145.615 174.113 145.634C174.083 145.653 174.05 145.666 174.015 145.672L173.96 145.677Z" fill="#191A2F"/>
<path d="M195.476 153.175C195.262 153.175 195.053 153.111 194.875 152.992C194.696 152.873 194.558 152.704 194.476 152.506C194.394 152.308 194.372 152.09 194.414 151.88C194.456 151.67 194.559 151.477 194.71 151.325C194.862 151.174 195.055 151.07 195.265 151.029C195.475 150.987 195.693 151.008 195.891 151.09C196.089 151.172 196.258 151.311 196.377 151.489C196.496 151.667 196.56 151.877 196.56 152.091C196.56 152.379 196.446 152.654 196.243 152.857C196.039 153.06 195.764 153.175 195.476 153.175ZM195.476 151.55C195.369 151.55 195.265 151.581 195.176 151.641C195.086 151.7 195.017 151.785 194.976 151.884C194.935 151.983 194.924 152.092 194.945 152.197C194.966 152.302 195.018 152.398 195.093 152.474C195.169 152.55 195.266 152.602 195.371 152.623C195.476 152.643 195.585 152.633 195.684 152.592C195.783 152.551 195.867 152.481 195.927 152.392C195.986 152.303 196.018 152.198 196.018 152.091C196.013 151.951 195.953 151.819 195.852 151.722C195.751 151.625 195.616 151.571 195.476 151.571V151.55Z" fill="#191A2F"/>
<path d="M208.467 140.332C208.312 140.332 208.161 140.286 208.033 140.2C207.905 140.114 207.805 139.993 207.746 139.85C207.687 139.707 207.671 139.551 207.702 139.399C207.732 139.248 207.806 139.109 207.915 139C208.024 138.891 208.163 138.817 208.314 138.786C208.466 138.756 208.623 138.772 208.765 138.831C208.908 138.89 209.029 138.99 209.115 139.118C209.201 139.246 209.247 139.397 209.247 139.552C209.247 139.758 209.164 139.957 209.018 140.103C208.872 140.249 208.673 140.332 208.467 140.332ZM208.467 139.313C208.403 139.313 208.342 139.338 208.296 139.383C208.251 139.427 208.224 139.488 208.223 139.552C208.222 139.6 208.235 139.648 208.261 139.688C208.287 139.729 208.325 139.761 208.369 139.781C208.414 139.8 208.463 139.805 208.511 139.797C208.558 139.788 208.602 139.765 208.637 139.731C208.672 139.697 208.695 139.654 208.705 139.607C208.715 139.559 208.711 139.51 208.692 139.465C208.674 139.42 208.643 139.382 208.603 139.355C208.562 139.328 208.515 139.313 208.467 139.313Z" fill="#191A2F"/>
<path d="M198.028 139.022C197.83 139.022 197.636 138.963 197.471 138.853C197.306 138.743 197.178 138.586 197.102 138.403C197.026 138.22 197.006 138.019 197.045 137.824C197.084 137.63 197.179 137.451 197.319 137.311C197.46 137.171 197.638 137.076 197.833 137.037C198.027 136.998 198.228 137.018 198.412 137.094C198.595 137.17 198.751 137.298 198.861 137.463C198.971 137.628 199.03 137.822 199.03 138.02C199.031 138.152 199.005 138.282 198.955 138.404C198.905 138.526 198.831 138.637 198.738 138.73C198.645 138.823 198.534 138.897 198.412 138.947C198.29 138.997 198.16 139.023 198.028 139.022ZM198.028 137.565C197.915 137.577 197.811 137.631 197.735 137.715C197.659 137.799 197.617 137.909 197.617 138.022C197.617 138.136 197.659 138.245 197.735 138.33C197.811 138.414 197.915 138.468 198.028 138.48C198.092 138.487 198.157 138.481 198.219 138.461C198.28 138.441 198.337 138.408 198.385 138.365C198.433 138.322 198.472 138.269 198.498 138.21C198.525 138.151 198.538 138.087 198.538 138.022C198.538 137.958 198.525 137.894 198.498 137.835C198.472 137.776 198.433 137.723 198.385 137.68C198.337 137.636 198.28 137.604 198.219 137.584C198.157 137.564 198.092 137.558 198.028 137.565Z" fill="#191A2F"/>
<path d="M206.788 159.308C206.502 159.309 206.223 159.225 205.986 159.067C205.748 158.91 205.562 158.685 205.453 158.422C205.343 158.159 205.313 157.869 205.368 157.589C205.423 157.309 205.56 157.052 205.761 156.85C205.963 156.648 206.219 156.51 206.499 156.454C206.779 156.398 207.069 156.426 207.332 156.535C207.596 156.644 207.821 156.829 207.98 157.066C208.138 157.303 208.223 157.581 208.223 157.867C208.223 158.248 208.072 158.614 207.803 158.884C207.534 159.154 207.169 159.306 206.788 159.308ZM206.788 156.973C206.609 156.972 206.435 157.024 206.286 157.122C206.137 157.221 206.021 157.361 205.953 157.525C205.884 157.69 205.866 157.871 205.9 158.046C205.935 158.221 206.02 158.382 206.146 158.508C206.272 158.634 206.433 158.72 206.608 158.754C206.783 158.789 206.964 158.771 207.129 158.702C207.293 158.633 207.434 158.517 207.532 158.368C207.631 158.22 207.682 158.045 207.681 157.867C207.681 157.63 207.587 157.402 207.42 157.235C207.252 157.067 207.025 156.973 206.788 156.973Z" fill="#191A2F"/>
<path d="M209.268 113.625C209.07 113.626 208.876 113.569 208.71 113.459C208.545 113.35 208.415 113.194 208.339 113.01C208.262 112.827 208.241 112.626 208.279 112.431C208.317 112.236 208.412 112.057 208.552 111.917C208.692 111.776 208.871 111.68 209.065 111.641C209.26 111.602 209.462 111.621 209.645 111.697C209.829 111.773 209.985 111.901 210.096 112.066C210.206 112.231 210.265 112.425 210.265 112.623C210.265 112.888 210.16 113.142 209.973 113.33C209.787 113.518 209.533 113.624 209.268 113.625ZM209.268 112.168C209.177 112.167 209.087 112.193 209.01 112.244C208.934 112.294 208.874 112.366 208.839 112.45C208.803 112.534 208.793 112.627 208.811 112.717C208.829 112.807 208.873 112.889 208.937 112.954C209.002 113.019 209.085 113.063 209.174 113.08C209.264 113.098 209.357 113.088 209.442 113.053C209.526 113.017 209.598 112.958 209.648 112.881C209.698 112.805 209.724 112.715 209.723 112.623C209.722 112.503 209.674 112.388 209.588 112.303C209.503 112.218 209.389 112.17 209.268 112.168Z" fill="#191A2F"/>
<path d="M222.838 127.201C222.698 127.201 222.561 127.159 222.444 127.081C222.327 127.003 222.236 126.892 222.182 126.762C222.129 126.633 222.115 126.49 222.142 126.352C222.169 126.215 222.237 126.088 222.336 125.989C222.436 125.89 222.562 125.822 222.7 125.795C222.837 125.768 222.98 125.782 223.11 125.835C223.239 125.889 223.35 125.98 223.428 126.097C223.506 126.213 223.548 126.351 223.548 126.491C223.548 126.679 223.473 126.86 223.34 126.993C223.207 127.126 223.026 127.201 222.838 127.201ZM222.838 126.323C222.805 126.323 222.772 126.333 222.745 126.351C222.717 126.37 222.696 126.396 222.683 126.427C222.67 126.457 222.667 126.491 222.673 126.524C222.68 126.556 222.696 126.586 222.719 126.61C222.743 126.633 222.773 126.649 222.805 126.656C222.838 126.662 222.872 126.659 222.902 126.646C222.933 126.633 222.959 126.612 222.978 126.584C222.996 126.557 223.006 126.524 223.006 126.491C223.006 126.446 222.988 126.404 222.957 126.372C222.925 126.341 222.883 126.323 222.838 126.323Z" fill="#191A2F"/>
<path d="M195.184 123.55C195.001 123.55 194.822 123.496 194.669 123.394C194.517 123.292 194.398 123.147 194.328 122.978C194.258 122.809 194.24 122.623 194.276 122.443C194.311 122.263 194.4 122.098 194.529 121.969C194.659 121.839 194.824 121.751 195.003 121.715C195.183 121.679 195.369 121.698 195.539 121.768C195.708 121.838 195.853 121.957 195.954 122.109C196.056 122.261 196.11 122.44 196.11 122.624C196.11 122.869 196.013 123.105 195.839 123.279C195.665 123.452 195.43 123.55 195.184 123.55ZM195.184 122.239C195.108 122.239 195.034 122.262 194.97 122.304C194.907 122.346 194.858 122.406 194.829 122.476C194.8 122.547 194.792 122.624 194.807 122.699C194.822 122.773 194.858 122.842 194.912 122.896C194.966 122.949 195.034 122.986 195.109 123.001C195.184 123.016 195.261 123.008 195.331 122.979C195.402 122.95 195.462 122.9 195.504 122.837C195.546 122.774 195.569 122.7 195.569 122.624C195.569 122.573 195.559 122.523 195.539 122.476C195.52 122.43 195.492 122.387 195.456 122.352C195.42 122.316 195.378 122.288 195.331 122.268C195.285 122.249 195.235 122.239 195.184 122.239Z" fill="#191A2F"/>
<path d="M128.999 140.477C128.83 140.477 128.664 140.427 128.523 140.333C128.383 140.238 128.273 140.104 128.208 139.948C128.144 139.791 128.127 139.619 128.16 139.453C128.194 139.286 128.276 139.134 128.396 139.014C128.516 138.895 128.669 138.814 128.836 138.781C129.002 138.749 129.174 138.767 129.331 138.832C129.487 138.898 129.62 139.008 129.714 139.15C129.807 139.291 129.856 139.457 129.855 139.627C129.855 139.739 129.833 139.85 129.79 139.954C129.747 140.057 129.684 140.151 129.604 140.23C129.525 140.309 129.43 140.372 129.327 140.414C129.223 140.457 129.112 140.478 128.999 140.477ZM128.999 139.313C128.937 139.313 128.877 139.331 128.825 139.366C128.773 139.4 128.733 139.449 128.709 139.507C128.685 139.564 128.679 139.627 128.691 139.688C128.703 139.749 128.733 139.805 128.777 139.849C128.821 139.893 128.877 139.923 128.938 139.935C128.999 139.947 129.062 139.941 129.12 139.917C129.177 139.893 129.226 139.853 129.261 139.801C129.295 139.75 129.314 139.689 129.314 139.627C129.314 139.544 129.281 139.464 129.222 139.405C129.163 139.346 129.083 139.313 128.999 139.313Z" fill="#191A2F"/>
<path d="M125.717 150.403C125.502 150.403 125.293 150.34 125.115 150.221C124.937 150.101 124.798 149.932 124.716 149.734C124.634 149.536 124.612 149.319 124.654 149.108C124.696 148.898 124.799 148.705 124.951 148.554C125.102 148.402 125.295 148.299 125.505 148.257C125.715 148.215 125.933 148.237 126.131 148.319C126.329 148.401 126.498 148.54 126.618 148.718C126.737 148.896 126.8 149.105 126.8 149.32C126.8 149.607 126.686 149.883 126.483 150.086C126.28 150.289 126.004 150.403 125.717 150.403ZM125.717 148.778C125.61 148.778 125.505 148.81 125.416 148.869C125.327 148.929 125.257 149.013 125.216 149.112C125.175 149.211 125.165 149.32 125.185 149.425C125.206 149.53 125.258 149.627 125.334 149.703C125.409 149.779 125.506 149.83 125.611 149.851C125.716 149.872 125.825 149.861 125.924 149.82C126.023 149.779 126.108 149.71 126.167 149.621C126.227 149.532 126.258 149.427 126.258 149.32C126.253 149.18 126.193 149.048 126.092 148.951C125.991 148.854 125.857 148.8 125.717 148.8V148.778Z" fill="#191A2F"/>
<path d="M140.749 159.6C140.564 159.601 140.383 159.547 140.23 159.445C140.076 159.344 139.955 159.198 139.884 159.028C139.813 158.858 139.793 158.671 139.829 158.49C139.864 158.309 139.952 158.142 140.082 158.011C140.213 157.88 140.379 157.791 140.559 157.755C140.74 157.718 140.928 157.736 141.099 157.807C141.269 157.877 141.415 157.997 141.518 158.15C141.62 158.303 141.675 158.484 141.675 158.668C141.676 158.79 141.652 158.911 141.606 159.024C141.56 159.137 141.492 159.24 141.406 159.327C141.319 159.413 141.217 159.482 141.104 159.529C140.992 159.576 140.871 159.6 140.749 159.6ZM140.749 158.283C140.671 158.282 140.595 158.304 140.53 158.347C140.465 158.389 140.414 158.45 140.384 158.522C140.354 158.593 140.346 158.672 140.36 158.748C140.375 158.824 140.413 158.894 140.467 158.949C140.522 159.004 140.592 159.041 140.669 159.056C140.745 159.071 140.824 159.063 140.895 159.033C140.966 159.003 141.027 158.952 141.07 158.887C141.112 158.822 141.134 158.746 141.133 158.668C141.133 158.566 141.093 158.468 141.021 158.396C140.948 158.324 140.851 158.283 140.749 158.283Z" fill="#191A2F"/>
<path d="M139.14 149.383C138.985 149.383 138.833 149.337 138.704 149.251C138.574 149.165 138.474 149.042 138.414 148.899C138.355 148.755 138.339 148.597 138.37 148.445C138.4 148.292 138.475 148.152 138.585 148.043C138.694 147.933 138.834 147.858 138.987 147.828C139.139 147.797 139.297 147.813 139.441 147.872C139.584 147.932 139.707 148.032 139.793 148.162C139.879 148.291 139.925 148.443 139.925 148.598C139.925 148.806 139.843 149.006 139.695 149.153C139.548 149.301 139.348 149.383 139.14 149.383ZM139.14 148.36C139.092 148.36 139.044 148.374 139.004 148.401C138.964 148.428 138.933 148.467 138.914 148.511C138.896 148.556 138.891 148.606 138.901 148.653C138.911 148.7 138.935 148.744 138.97 148.778C139.004 148.812 139.048 148.834 139.096 148.843C139.143 148.852 139.193 148.846 139.237 148.827C139.281 148.808 139.319 148.776 139.345 148.735C139.371 148.694 139.385 148.646 139.384 148.598C139.384 148.566 139.377 148.535 139.365 148.505C139.353 148.476 139.335 148.45 139.312 148.427C139.289 148.405 139.262 148.388 139.233 148.376C139.203 148.365 139.172 148.359 139.14 148.36Z" fill="#191A2F"/>
<path d="M120.533 127.927C120.392 127.927 120.255 127.885 120.138 127.807C120.021 127.729 119.93 127.618 119.877 127.488C119.823 127.358 119.809 127.215 119.837 127.077C119.865 126.939 119.933 126.813 120.033 126.714C120.133 126.615 120.26 126.548 120.398 126.521C120.536 126.494 120.679 126.509 120.808 126.563C120.938 126.618 121.048 126.71 121.126 126.827C121.203 126.945 121.244 127.082 121.242 127.223C121.242 127.316 121.224 127.408 121.188 127.494C121.153 127.579 121.1 127.657 121.034 127.723C120.968 127.788 120.89 127.84 120.804 127.875C120.718 127.91 120.626 127.928 120.533 127.927ZM120.533 127.055C120.511 127.055 120.489 127.059 120.469 127.068C120.449 127.076 120.431 127.089 120.416 127.104C120.401 127.12 120.389 127.139 120.381 127.159C120.373 127.179 120.37 127.201 120.37 127.223C120.37 127.244 120.373 127.266 120.381 127.286C120.389 127.306 120.401 127.324 120.416 127.339C120.431 127.355 120.45 127.367 120.47 127.375C120.49 127.382 120.511 127.386 120.533 127.385C120.555 127.386 120.576 127.382 120.597 127.375C120.617 127.367 120.636 127.355 120.651 127.34C120.667 127.325 120.679 127.306 120.688 127.286C120.696 127.266 120.701 127.245 120.701 127.223C120.701 127.178 120.683 127.136 120.652 127.104C120.62 127.073 120.577 127.055 120.533 127.055Z" fill="#191A2F"/>
<path d="M117.765 152.011C117.595 152.012 117.429 151.962 117.288 151.869C117.146 151.776 117.036 151.642 116.97 151.486C116.904 151.33 116.887 151.157 116.919 150.991C116.952 150.825 117.033 150.672 117.152 150.551C117.272 150.431 117.424 150.349 117.59 150.316C117.756 150.282 117.929 150.299 118.085 150.363C118.242 150.428 118.376 150.538 118.47 150.679C118.565 150.82 118.615 150.985 118.615 151.155C118.615 151.381 118.526 151.598 118.366 151.758C118.207 151.918 117.991 152.009 117.765 152.011ZM117.765 150.841C117.702 150.839 117.641 150.857 117.589 150.891C117.536 150.925 117.495 150.973 117.471 151.031C117.446 151.088 117.439 151.151 117.45 151.213C117.462 151.274 117.491 151.33 117.535 151.375C117.579 151.419 117.635 151.45 117.696 151.462C117.757 151.475 117.82 151.469 117.878 151.445C117.936 151.422 117.985 151.382 118.02 151.33C118.055 151.278 118.073 151.217 118.073 151.155C118.073 151.072 118.041 150.993 117.983 150.934C117.926 150.876 117.847 150.842 117.765 150.841Z" fill="#191A2F"/>
<path d="M133.599 166.75C133.414 166.751 133.233 166.697 133.079 166.595C132.925 166.493 132.805 166.348 132.734 166.177C132.662 166.007 132.643 165.819 132.679 165.638C132.715 165.457 132.804 165.29 132.935 165.16C133.065 165.029 133.232 164.94 133.413 164.904C133.594 164.869 133.782 164.887 133.952 164.959C134.123 165.03 134.268 165.15 134.37 165.304C134.472 165.458 134.526 165.639 134.525 165.824C134.524 166.069 134.426 166.304 134.252 166.477C134.079 166.651 133.844 166.749 133.599 166.75ZM133.599 165.434C133.521 165.433 133.445 165.455 133.381 165.497C133.316 165.539 133.265 165.6 133.235 165.671C133.204 165.742 133.196 165.821 133.21 165.897C133.225 165.973 133.261 166.043 133.316 166.098C133.37 166.153 133.439 166.19 133.515 166.206C133.591 166.221 133.67 166.214 133.741 166.185C133.813 166.155 133.874 166.105 133.917 166.041C133.96 165.977 133.983 165.901 133.983 165.824C133.983 165.721 133.943 165.623 133.871 165.55C133.799 165.477 133.701 165.435 133.599 165.434Z" fill="#191A2F"/>
<path d="M164.318 163.976C164.091 163.978 163.868 163.911 163.679 163.786C163.489 163.66 163.341 163.481 163.254 163.271C163.166 163.062 163.142 162.831 163.186 162.607C163.23 162.384 163.339 162.179 163.499 162.018C163.659 161.857 163.864 161.747 164.087 161.702C164.31 161.657 164.541 161.68 164.751 161.767C164.961 161.853 165.141 162.001 165.267 162.19C165.394 162.378 165.461 162.601 165.461 162.828C165.461 163.132 165.341 163.423 165.127 163.638C164.913 163.853 164.622 163.975 164.318 163.976ZM164.318 162.227C164.198 162.226 164.08 162.261 163.979 162.327C163.879 162.393 163.8 162.488 163.753 162.599C163.707 162.71 163.694 162.832 163.718 162.951C163.741 163.069 163.799 163.177 163.884 163.262C163.969 163.348 164.078 163.406 164.196 163.429C164.314 163.452 164.437 163.44 164.548 163.393C164.659 163.346 164.753 163.268 164.82 163.167C164.886 163.067 164.921 162.949 164.92 162.828C164.918 162.669 164.854 162.517 164.742 162.404C164.63 162.292 164.477 162.228 164.318 162.227Z" fill="#191A2F"/>
<path d="M161.328 169.671C161.172 169.672 161.02 169.626 160.89 169.541C160.76 169.455 160.659 169.333 160.598 169.189C160.538 169.046 160.522 168.888 160.552 168.735C160.581 168.582 160.656 168.442 160.765 168.332C160.875 168.221 161.015 168.146 161.167 168.115C161.32 168.084 161.478 168.1 161.622 168.159C161.766 168.218 161.889 168.319 161.975 168.448C162.062 168.577 162.108 168.729 162.108 168.885C162.108 169.092 162.026 169.291 161.88 169.439C161.734 169.586 161.535 169.669 161.328 169.671ZM161.328 168.647C161.279 168.646 161.231 168.659 161.191 168.686C161.15 168.712 161.118 168.75 161.098 168.795C161.079 168.839 161.074 168.889 161.083 168.937C161.093 168.984 161.116 169.028 161.15 169.063C161.185 169.097 161.229 169.121 161.276 169.13C161.324 169.139 161.374 169.134 161.418 169.115C161.463 169.095 161.501 169.063 161.528 169.022C161.554 168.982 161.567 168.934 161.566 168.885C161.565 168.822 161.539 168.762 161.495 168.718C161.451 168.674 161.391 168.648 161.328 168.647Z" fill="#191A2F"/>
<path d="M96.8715 133.078L95.7881 135.543C95.7881 135.543 97.4132 137.455 98.7945 137.168C100.176 136.881 101.254 133.891 101.254 133.891L96.8715 133.078Z" fill="#C9B8FF"/>
<path d="M98.5127 137.477C97.0989 137.477 95.6363 135.793 95.5713 135.717C95.5369 135.678 95.5146 135.631 95.5069 135.58C95.4992 135.529 95.5065 135.477 95.5279 135.43L96.6113 132.97C96.636 132.914 96.6788 132.868 96.7329 132.84C96.787 132.811 96.8492 132.802 96.9093 132.813L101.286 133.637C101.325 133.643 101.362 133.658 101.393 133.68C101.425 133.703 101.452 133.732 101.47 133.767C101.487 133.802 101.495 133.841 101.495 133.88C101.495 133.92 101.487 133.958 101.47 133.994C101.357 134.314 100.284 137.152 98.8106 137.445C98.7125 137.465 98.6128 137.475 98.5127 137.477ZM96.0967 135.489C96.6384 136.031 97.8193 137.114 98.7294 136.914C99.6394 136.713 100.49 135.034 100.896 134.108L97.0501 133.387L96.0967 135.489Z" fill="#191A2F"/>
<path d="M101.519 126.24C101.519 126.24 100.148 127.611 100.436 128.705C100.723 129.799 102.895 129.788 102.895 129.788L101.519 126.24Z" fill="#C9B8FF"/>
<path d="M102.884 130.071C102.64 130.071 100.479 130.033 100.176 128.771C99.8723 127.508 101.259 126.111 101.34 126.062C101.372 126.03 101.412 126.007 101.456 125.994C101.499 125.982 101.545 125.981 101.589 125.992C101.634 126 101.675 126.02 101.71 126.049C101.744 126.079 101.77 126.117 101.784 126.16L103.155 129.713C103.17 129.754 103.174 129.798 103.168 129.842C103.163 129.885 103.147 129.926 103.122 129.962C103.097 129.998 103.064 130.028 103.025 130.049C102.987 130.069 102.944 130.081 102.9 130.081L102.884 130.071ZM101.427 126.755C101.032 127.243 100.533 128.034 100.685 128.641C100.837 129.247 101.828 129.442 102.483 129.507L101.427 126.755Z" fill="#191A2F"/>
<path d="M112.992 173.971C112.992 173.971 111.627 175.336 111.909 176.43C112.191 177.524 114.374 177.513 114.374 177.513L112.992 173.971Z" fill="#C9B8FF"/>
<path d="M114.374 177.794C114.124 177.794 111.963 177.762 111.665 176.494C111.367 175.227 112.748 173.84 112.83 173.786C112.862 173.754 112.902 173.73 112.945 173.717C112.988 173.704 113.034 173.702 113.079 173.71C113.123 173.72 113.163 173.741 113.197 173.77C113.231 173.799 113.257 173.836 113.274 173.878L114.639 177.431C114.656 177.472 114.663 177.516 114.658 177.56C114.654 177.604 114.639 177.646 114.614 177.683C114.589 177.72 114.556 177.749 114.517 177.77C114.478 177.79 114.434 177.801 114.39 177.8L114.374 177.794ZM112.911 174.485C112.521 174.967 112.023 175.763 112.174 176.364C112.326 176.966 113.306 177.171 113.967 177.231L112.911 174.485Z" fill="#191A2F"/>
<path d="M93.5882 141.009C93.5882 141.009 97.1526 141.16 96.7896 140.245C96.4267 139.329 94.0811 138.365 94.0811 138.365L89.7476 139.335L93.5882 141.009Z" fill="#C9B8FF"/>
<path d="M94.2278 141.295C93.9569 141.295 93.7294 141.295 93.5777 141.295C93.5454 141.3 93.5125 141.3 93.4802 141.295L89.6504 139.616C89.5993 139.592 89.5568 139.554 89.5288 139.505C89.5007 139.456 89.4886 139.4 89.4939 139.344C89.4993 139.288 89.5219 139.235 89.5587 139.193C89.5955 139.15 89.6446 139.12 89.6992 139.107L94.0328 138.137C94.0858 138.121 94.1423 138.121 94.1953 138.137C94.4445 138.24 96.6438 139.172 97.0338 140.168C97.0726 140.256 97.0875 140.352 97.0771 140.447C97.0666 140.542 97.0311 140.633 96.9742 140.71C96.6167 141.203 95.1757 141.295 94.2278 141.295ZM93.6482 140.753C95.1974 140.818 96.4704 140.607 96.5462 140.385C96.3133 139.789 94.9212 139.031 94.0761 138.662L90.6255 139.432L93.6482 140.753Z" fill="#191A2F"/>
<path d="M123.393 176.279L122.299 178.739L124.758 180.38L126.399 177.374L123.393 176.279Z" fill="#C9B8FF"/>
<path d="M124.758 180.652C124.704 180.651 124.652 180.636 124.606 180.608L122.147 178.983C122.094 178.948 122.054 178.895 122.037 178.833C122.019 178.772 122.023 178.706 122.049 178.647L123.133 176.188C123.16 176.125 123.211 176.074 123.274 176.047C123.338 176.02 123.409 176.018 123.474 176.042L126.48 177.125C126.517 177.139 126.55 177.16 126.578 177.187C126.606 177.214 126.628 177.247 126.643 177.282C126.659 177.318 126.667 177.357 126.667 177.396C126.667 177.435 126.659 177.474 126.643 177.51L125.018 180.516C124.98 180.582 124.918 180.631 124.845 180.652H124.758ZM122.64 178.642L124.66 179.991L126.009 177.521L123.534 176.621L122.64 178.642Z" fill="#191A2F"/>
<path d="M116.828 169.172L115.457 171.631C115.457 171.631 116.822 172.715 117.624 172.449L116.828 169.172Z" fill="#C9B8FF"/>
<path d="M117.358 172.763C116.475 172.763 115.424 171.95 115.294 171.842C115.244 171.803 115.21 171.747 115.197 171.684C115.184 171.622 115.194 171.557 115.224 171.501L116.594 169.036C116.621 168.989 116.661 168.951 116.709 168.927C116.757 168.903 116.812 168.894 116.865 168.901C116.919 168.909 116.97 168.933 117.01 168.969C117.051 169.006 117.079 169.054 117.093 169.107L117.911 172.384C117.928 172.45 117.92 172.52 117.888 172.58C117.856 172.641 117.802 172.687 117.737 172.709C117.615 172.746 117.487 172.764 117.358 172.763ZM115.814 171.555C116.252 171.897 116.768 172.125 117.315 172.221L116.735 169.903L115.814 171.555Z" fill="#191A2F"/>
<path d="M149.562 113.269C152.264 113.269 154.454 111.079 154.454 108.378C154.454 105.676 152.264 103.486 149.562 103.486C146.861 103.486 144.671 105.676 144.671 108.378C144.671 111.079 146.861 113.269 149.562 113.269Z" fill="#191A2F"/>
<path d="M148.593 108.003C148.593 108.331 148.496 108.652 148.313 108.925C148.131 109.197 147.872 109.41 147.569 109.535C147.265 109.661 146.932 109.693 146.61 109.629C146.288 109.564 145.993 109.406 145.761 109.173C145.53 108.941 145.372 108.645 145.309 108.323C145.246 108.001 145.279 107.668 145.406 107.365C145.532 107.062 145.745 106.804 146.018 106.622C146.292 106.441 146.613 106.345 146.941 106.346C147.38 106.347 147.8 106.522 148.109 106.833C148.419 107.144 148.593 107.565 148.593 108.003Z" fill="white"/>
<path d="M151.15 110.934C151.15 111.041 151.118 111.146 151.059 111.235C150.999 111.324 150.914 111.394 150.815 111.435C150.716 111.476 150.608 111.486 150.502 111.466C150.397 111.445 150.301 111.393 150.225 111.317C150.149 111.242 150.098 111.145 150.077 111.04C150.056 110.935 150.067 110.826 150.108 110.727C150.149 110.628 150.218 110.543 150.307 110.484C150.396 110.424 150.501 110.393 150.608 110.393C150.752 110.393 150.89 110.45 150.991 110.551C151.093 110.653 151.15 110.791 151.15 110.934Z" fill="white"/>
<path d="M173.143 105.478C175.845 105.478 178.035 103.288 178.035 100.587C178.035 97.8853 175.845 95.6953 173.143 95.6953C170.441 95.6953 168.251 97.8853 168.251 100.587C168.251 103.288 170.441 105.478 173.143 105.478Z" fill="#191A2F"/>
<path d="M172.178 100.214C172.178 100.542 172.081 100.863 171.899 101.135C171.717 101.408 171.458 101.62 171.155 101.746C170.852 101.871 170.519 101.904 170.197 101.84C169.876 101.776 169.581 101.618 169.349 101.386C169.117 101.155 168.959 100.859 168.895 100.538C168.831 100.216 168.864 99.8828 168.989 99.5799C169.115 99.277 169.327 99.0181 169.6 98.836C169.873 98.6539 170.193 98.5566 170.521 98.5566C170.96 98.5566 171.382 98.7313 171.693 99.0421C172.004 99.353 172.178 99.7746 172.178 100.214Z" fill="white"/>
<path d="M174.735 103.145C174.735 103.252 174.703 103.357 174.644 103.446C174.584 103.535 174.5 103.605 174.401 103.646C174.302 103.687 174.193 103.697 174.088 103.677C173.983 103.656 173.886 103.604 173.811 103.528C173.735 103.452 173.683 103.356 173.662 103.251C173.641 103.146 173.652 103.037 173.693 102.938C173.734 102.839 173.804 102.754 173.893 102.695C173.982 102.635 174.086 102.604 174.194 102.604C174.337 102.604 174.475 102.661 174.577 102.762C174.678 102.864 174.735 103.002 174.735 103.145Z" fill="white"/>
<path d="M139.715 102.174H139.579C139.366 102.137 139.176 102.017 139.051 101.84C138.927 101.663 138.877 101.444 138.913 101.231C139.117 99.9575 139.638 98.7555 140.427 97.7353C141.216 96.715 142.249 95.9092 143.431 95.3916C145.2 94.6463 147.186 94.5998 148.988 95.2616C149.096 95.2912 149.197 95.3426 149.284 95.4127C149.37 95.4829 149.442 95.5702 149.494 95.6692C149.545 95.7682 149.576 95.8768 149.584 95.9882C149.592 96.0996 149.576 96.2114 149.539 96.3167C149.502 96.422 149.443 96.5184 149.367 96.6C149.291 96.6816 149.198 96.7466 149.096 96.7909C148.993 96.8352 148.883 96.858 148.771 96.8577C148.659 96.8574 148.549 96.8341 148.447 96.7892C147.032 96.268 145.471 96.3028 144.081 96.8867C143.149 97.2978 142.335 97.9364 141.714 98.7437C141.094 99.551 140.685 100.501 140.527 101.507C140.492 101.696 140.391 101.866 140.242 101.988C140.093 102.11 139.907 102.176 139.715 102.174Z" fill="#191A2F"/>
<path d="M164.21 93.3997C164.108 93.3982 164.007 93.378 163.912 93.3401C163.813 93.3013 163.722 93.2432 163.646 93.1693C163.569 93.0953 163.508 93.007 163.466 92.9093C163.424 92.8116 163.401 92.7066 163.399 92.6001C163.398 92.4937 163.418 92.388 163.457 92.2892C163.914 91.0774 164.669 90.0006 165.653 89.1587C166.637 88.3168 167.817 87.7371 169.085 87.4735C170.969 87.0993 172.924 87.4536 174.556 88.4648C174.74 88.5776 174.872 88.7588 174.922 88.9686C174.972 89.1783 174.937 89.3995 174.825 89.5834C174.712 89.7673 174.531 89.8989 174.321 89.9492C174.111 89.9994 173.89 89.9643 173.706 89.8515C172.425 89.0556 170.89 88.7749 169.41 89.0661C168.417 89.2797 167.493 89.7386 166.723 90.401C165.953 91.0633 165.361 91.908 165.001 92.858C164.943 93.0205 164.836 93.1605 164.694 93.2579C164.552 93.3553 164.382 93.4049 164.21 93.3997Z" fill="#191A2F"/>
<path d="M162.585 116.247C160.988 116.238 159.438 115.708 158.17 114.736C158.113 114.693 158.075 114.628 158.065 114.557C158.055 114.486 158.073 114.414 158.116 114.356C158.16 114.3 158.224 114.263 158.295 114.253C158.366 114.243 158.437 114.261 158.495 114.302C159.371 114.984 160.404 115.435 161.499 115.613C162.594 115.791 163.717 115.69 164.763 115.321C166.029 114.839 167.121 113.986 167.894 112.874C168.668 111.761 169.087 110.441 169.096 109.086C169.099 109.014 169.13 108.947 169.181 108.897C169.233 108.848 169.301 108.82 169.373 108.82C169.409 108.821 169.444 108.829 169.477 108.843C169.51 108.858 169.54 108.879 169.565 108.905C169.589 108.932 169.609 108.963 169.621 108.996C169.634 109.03 169.64 109.066 169.638 109.102C169.626 110.564 169.174 111.988 168.34 113.188C167.506 114.388 166.329 115.309 164.963 115.83C164.202 116.11 163.396 116.251 162.585 116.247Z" fill="#191A2F"/>
<path d="M161.377 116.031C161.377 116.031 163.322 121.448 167.168 119.996C171.285 118.431 168.484 112.586 168.484 112.586C168.484 112.586 166.854 116.031 161.377 116.031Z" fill="#191A2F"/>
<path d="M165.879 120.516C165.373 120.515 164.874 120.404 164.416 120.191C162.249 119.189 161.166 116.247 161.123 116.123L160.993 115.76H161.377C166.605 115.76 168.176 112.602 168.241 112.472L168.484 111.957L168.728 112.466C168.793 112.607 170.353 115.857 169.373 118.246C169.187 118.712 168.902 119.131 168.538 119.476C168.174 119.822 167.74 120.084 167.266 120.245C166.824 120.419 166.354 120.511 165.879 120.516ZM161.778 116.296C162.13 117.092 163.1 119.005 164.644 119.698C165.024 119.871 165.435 119.964 165.853 119.972C166.27 119.979 166.685 119.901 167.071 119.741C167.475 119.604 167.844 119.382 168.155 119.09C168.465 118.797 168.709 118.441 168.869 118.046C169.535 116.383 168.82 114.145 168.441 113.17C167.78 114.135 165.895 116.171 161.778 116.296Z" fill="#191A2F"/>
<path d="M149.887 122.596C153.597 122.596 156.605 120.976 156.605 118.978C156.605 116.979 153.597 115.359 149.887 115.359C146.178 115.359 143.17 116.979 143.17 118.978C143.17 120.976 146.178 122.596 149.887 122.596Z" fill="#C9B8FF"/>
<path d="M181.613 111.193C184.494 108.856 185.808 105.703 184.549 104.151C183.29 102.599 179.934 103.236 177.053 105.574C174.173 107.912 172.858 111.065 174.118 112.616C175.377 114.168 178.733 113.531 181.613 111.193Z" fill="#C9B8FF"/>
<path d="M169.28 117.636C168.966 117.564 168.644 117.527 168.321 117.527C167.52 117.532 166.735 117.754 166.051 118.171C165.366 118.589 164.809 119.184 164.438 119.895C164.855 120.106 165.313 120.224 165.781 120.242C166.248 120.26 166.714 120.176 167.146 119.997C167.676 119.823 168.151 119.513 168.526 119.099C168.9 118.685 169.16 118.181 169.28 117.636Z" fill="#C9B8FF"/>
<path d="M165.884 120.517C165.338 120.513 164.8 120.384 164.313 120.137C164.249 120.105 164.201 120.048 164.178 119.98C164.163 119.947 164.155 119.911 164.155 119.875C164.155 119.838 164.163 119.802 164.178 119.769C164.65 118.858 165.41 118.129 166.34 117.696C167.27 117.263 168.317 117.15 169.318 117.375C169.389 117.391 169.452 117.433 169.492 117.494C169.511 117.524 169.523 117.558 169.529 117.594C169.534 117.629 169.533 117.665 169.524 117.7C169.395 118.284 169.117 118.826 168.718 119.272C168.318 119.718 167.811 120.053 167.244 120.246C166.81 120.417 166.35 120.509 165.884 120.517ZM164.801 119.769C165.523 120.056 166.327 120.056 167.049 119.769C167.487 119.621 167.884 119.373 168.209 119.043C168.533 118.714 168.776 118.313 168.918 117.873C168.124 117.753 167.313 117.868 166.585 118.205C165.857 118.542 165.244 119.086 164.822 119.769H164.801Z" fill="#191A2F"/>
<path d="M43.7461 180.517C43.0683 180.776 42.4479 180.88 41.8851 180.828C41.3267 180.765 40.8401 180.563 40.4252 180.22C40.0076 179.87 39.6658 179.391 39.4 178.783C39.2785 178.487 39.1524 178.167 39.0215 177.825C38.8906 177.482 38.769 177.153 38.6565 176.837C38.4518 176.213 38.3884 175.632 38.4663 175.093C38.5516 174.551 38.7829 174.074 39.1602 173.663C39.5421 173.241 40.0683 172.902 40.7388 172.646C41.2344 172.457 41.7041 172.352 42.1478 172.333C42.5915 172.314 42.9964 172.368 43.3624 172.496C43.7257 172.616 44.0424 172.8 44.3124 173.047C44.5824 173.295 44.7892 173.596 44.933 173.95C44.9653 174.013 44.9643 174.076 44.93 174.139C44.903 174.2 44.8567 174.242 44.7911 174.267L43.7525 174.664C43.6723 174.695 43.5998 174.702 43.5348 174.685C43.4671 174.661 43.4042 174.605 43.3461 174.519C43.0457 174.082 42.72 173.831 42.3689 173.765C42.0178 173.698 41.6309 173.746 41.2082 173.907C40.7199 174.094 40.3829 174.381 40.1971 174.77C40.0086 175.151 40.0232 175.659 40.2408 176.294C40.4472 176.9 40.6811 177.512 40.9425 178.131C41.2038 178.749 41.5332 179.141 41.9305 179.307C42.3251 179.465 42.7665 179.451 43.2548 179.264C43.6776 179.103 43.9976 178.88 44.2151 178.597C44.4297 178.306 44.5048 177.902 44.4405 177.383C44.4233 177.273 44.4333 177.19 44.4704 177.134C44.5075 177.078 44.5662 177.035 44.6463 177.004L45.6849 176.607C45.7505 176.582 45.8135 176.583 45.874 176.61C45.9417 176.634 45.9845 176.681 46.0022 176.749C46.1314 177.109 46.1779 177.471 46.1418 177.836C46.1057 178.2 45.9937 178.552 45.8059 178.891C45.6152 179.223 45.3482 179.53 45.0047 179.811C44.6613 180.093 44.2417 180.328 43.7461 180.517Z" fill="white"/>
<path d="M50.6511 177.879C50.068 178.102 49.5371 178.188 49.0583 178.137C48.5867 178.084 48.1743 177.911 47.8209 177.62C47.4748 177.326 47.1925 176.937 46.974 176.453C46.9166 176.324 46.8517 176.166 46.7793 175.976C46.7069 175.787 46.6493 175.625 46.6064 175.491C46.4435 174.977 46.398 174.497 46.4702 174.052C46.5468 173.597 46.7429 173.192 47.0586 172.837C47.3815 172.48 47.8271 172.193 48.3956 171.976C48.9641 171.759 49.4842 171.677 49.9557 171.731C50.4345 171.782 50.8506 171.952 51.204 172.243C51.5619 172.524 51.8515 172.911 52.0728 173.402C52.1302 173.531 52.1951 173.69 52.2675 173.879C52.3399 174.069 52.3975 174.231 52.4403 174.364C52.6005 174.871 52.6459 175.351 52.5766 175.803C52.5145 176.253 52.322 176.656 51.9991 177.014C51.6835 177.368 51.2342 177.657 50.6511 177.879ZM50.2376 176.797C50.6239 176.65 50.8768 176.415 50.9963 176.094C51.1129 175.765 51.0917 175.36 50.9326 174.878C50.8981 174.766 50.8475 174.622 50.7806 174.447C50.7138 174.272 50.6559 174.132 50.6068 174.025C50.4067 173.567 50.1537 173.254 49.8476 173.087C49.5416 172.92 49.1954 172.911 48.8092 173.058C48.4229 173.206 48.1714 173.444 48.0547 173.772C47.938 174.101 47.9578 174.503 48.1142 174.977C48.1486 175.09 48.1993 175.233 48.2661 175.408C48.333 175.583 48.3909 175.724 48.44 175.83C48.6428 176.296 48.8973 176.612 49.2033 176.779C49.5066 176.939 49.8513 176.945 50.2376 176.797Z" fill="white"/>
<path d="M54.8271 176.159C54.7543 176.187 54.6826 176.185 54.612 176.153C54.5415 176.122 54.4924 176.069 54.4645 175.997L52.4931 170.836C52.4652 170.763 52.4671 170.692 52.4986 170.621C52.5301 170.551 52.5823 170.502 52.6552 170.474L53.508 170.148C53.5808 170.12 53.6525 170.122 53.7231 170.153C53.7936 170.185 53.8427 170.237 53.8706 170.31L54.0126 170.682C54.0877 170.419 54.2263 170.17 54.4285 169.934C54.6352 169.688 54.9157 169.493 55.2701 169.349C56.0954 169.017 56.7987 169.12 57.3801 169.658C57.4364 169.303 57.5878 168.978 57.8344 168.683C58.0854 168.378 58.4041 168.152 58.7904 168.005C59.1694 167.86 59.5454 167.816 59.9183 167.874C60.2986 167.929 60.6444 168.102 60.9557 168.393C61.2716 168.673 61.5325 169.083 61.7386 169.622L62.9373 172.76C62.9652 172.832 62.9633 172.904 62.9318 172.975C62.9003 173.045 62.8481 173.094 62.7752 173.122L61.8787 173.465C61.8058 173.493 61.7341 173.491 61.6636 173.459C61.5931 173.428 61.5439 173.375 61.5161 173.303L60.3508 170.252C60.2255 169.924 60.0792 169.684 59.9121 169.53C59.7422 169.37 59.5617 169.28 59.3707 169.261C59.1798 169.242 58.9859 169.27 58.7891 169.346C58.6287 169.407 58.4837 169.508 58.354 169.65C58.2243 169.791 58.146 169.98 58.1191 170.215C58.0895 170.444 58.1373 170.722 58.2626 171.05L59.428 174.1C59.4558 174.173 59.454 174.245 59.4224 174.315C59.3909 174.386 59.3387 174.435 59.2658 174.463L58.3693 174.805C58.2892 174.836 58.2138 174.836 58.1433 174.804C58.0801 174.77 58.0345 174.716 58.0067 174.643L56.8414 171.593C56.7161 171.265 56.5662 171.026 56.3918 170.875C56.2145 170.718 56.0304 170.629 55.8395 170.61C55.6485 170.591 55.4619 170.617 55.2797 170.686C55.1121 170.75 54.9648 170.857 54.8378 171.005C54.7081 171.147 54.6285 171.332 54.5988 171.56C54.5692 171.789 54.617 172.067 54.7423 172.395L55.9076 175.445C55.9355 175.518 55.9336 175.59 55.9021 175.66C55.8706 175.731 55.8184 175.78 55.7455 175.808L54.8271 176.159Z" fill="white"/>
<path d="M64.6922 172.39C64.6193 172.418 64.5476 172.416 64.4771 172.384C64.4066 172.353 64.3574 172.301 64.3295 172.228L62.3581 167.067C62.3303 166.995 62.3321 166.923 62.3636 166.852C62.3952 166.782 62.4474 166.733 62.5202 166.705L63.4277 166.358C63.5078 166.328 63.5795 166.329 63.6427 166.364C63.7133 166.395 63.7624 166.447 63.7903 166.52L65.7617 171.681C65.7896 171.753 65.7877 171.825 65.7562 171.896C65.732 171.963 65.6798 172.013 65.5996 172.043L64.6922 172.39ZM62.1173 165.781C62.0371 165.812 61.9632 165.815 61.8955 165.791C61.8322 165.757 61.7853 165.699 61.7547 165.619L61.454 164.832C61.4261 164.759 61.4243 164.689 61.4485 164.621C61.4801 164.551 61.5359 164.5 61.6161 164.469L62.611 164.089C62.6911 164.059 62.7665 164.059 62.837 164.091C62.9075 164.122 62.9567 164.174 62.9845 164.247L63.2853 165.034C63.3159 165.115 63.3154 165.19 63.2839 165.26C63.2496 165.324 63.1924 165.371 63.1122 165.401L62.1173 165.781Z" fill="white"/>
<path d="M67.799 171.203C67.7261 171.231 67.6544 171.229 67.5839 171.197C67.5134 171.166 67.4642 171.114 67.4364 171.041L65.4649 165.881C65.4371 165.808 65.4389 165.736 65.4705 165.665C65.502 165.595 65.5542 165.546 65.6271 165.518L66.5236 165.175C66.5965 165.148 66.6682 165.149 66.7387 165.181C66.8092 165.212 66.8584 165.265 66.8862 165.338L67.0574 165.786C67.1578 165.48 67.3246 165.195 67.5576 164.931C67.7952 164.656 68.1326 164.435 68.5699 164.268C69.0145 164.098 69.4398 164.053 69.8458 164.132C70.2489 164.203 70.6076 164.388 70.9217 164.685C71.2432 164.98 71.5013 165.383 71.6963 165.893L72.8699 168.965C72.8978 169.038 72.8959 169.109 72.8644 169.18C72.8329 169.25 72.7807 169.3 72.7078 169.328L71.7457 169.695C71.6728 169.723 71.6011 169.721 71.5306 169.69C71.4601 169.658 71.4109 169.606 71.3831 169.533L70.2345 166.526C70.073 166.104 69.8406 165.812 69.5373 165.653C69.2414 165.49 68.8966 165.484 68.503 165.634C68.124 165.779 67.8675 166.015 67.7334 166.342C67.5994 166.669 67.6131 167.043 67.7746 167.466L68.9232 170.473C68.9511 170.546 68.9492 170.617 68.9177 170.688C68.8862 170.758 68.834 170.807 68.7611 170.835L67.799 171.203Z" fill="white"/>
<path d="M77.847 170.12C77.3149 170.324 76.8511 170.421 76.4557 170.414C76.0602 170.406 75.7265 170.342 75.4545 170.22C75.1826 170.098 74.9653 169.956 74.8026 169.793C74.65 169.634 74.5492 169.501 74.5002 169.394C74.465 169.324 74.4618 169.25 74.4906 169.173C74.5294 169.099 74.5852 169.049 74.6581 169.021L75.6093 168.658C75.6822 168.63 75.746 168.622 75.8009 168.634C75.8586 168.654 75.9187 168.702 75.9812 168.778C76.0612 168.857 76.1585 168.936 76.2731 169.018C76.3878 169.099 76.5319 169.149 76.7055 169.166C76.8892 169.187 77.1122 169.148 77.3746 169.048C77.6516 168.942 77.8695 168.813 78.0284 168.66C78.1872 168.508 78.2778 168.319 78.3002 168.093C78.3298 167.865 78.2806 167.583 78.1525 167.247L77.8685 166.504C77.7743 166.782 77.6138 167.04 77.387 167.277C77.1674 167.511 76.8572 167.705 76.4564 167.858C76.0628 168.008 75.7002 168.076 75.3686 168.06C75.0342 168.038 74.7292 167.95 74.4533 167.796C74.1747 167.635 73.9245 167.418 73.7028 167.143C73.4883 166.866 73.3013 166.541 73.142 166.167C73.0595 165.973 72.9843 165.777 72.9164 165.577C72.7918 165.207 72.717 164.847 72.692 164.498C72.667 164.148 72.7047 163.82 72.8051 163.515C72.91 163.199 73.0795 162.921 73.3136 162.682C73.5478 162.442 73.8616 162.247 74.2552 162.096C74.6706 161.938 75.0511 161.884 75.3966 161.936C75.7393 161.98 76.0464 162.084 76.3177 162.248L76.1506 161.811C76.12 161.73 76.1204 161.655 76.152 161.585C76.1835 161.514 76.2357 161.465 76.3086 161.437L77.1941 161.099C77.267 161.071 77.3387 161.073 77.4092 161.104C77.4797 161.136 77.5303 161.192 77.5609 161.272L79.5851 166.537C79.7856 167.062 79.8598 167.551 79.8078 168.006C79.7558 168.46 79.5684 168.866 79.2455 169.223C78.9327 169.584 78.4665 169.884 77.847 170.12ZM76.4181 166.544C76.717 166.43 76.9324 166.273 77.0645 166.072C77.1966 165.871 77.266 165.648 77.2727 165.404C77.2794 165.159 77.2483 164.924 77.1793 164.7C77.1504 164.603 77.1081 164.481 77.0524 164.335C76.9967 164.189 76.9485 164.074 76.9078 163.989C76.8069 163.769 76.6738 163.574 76.5084 163.403C76.3401 163.225 76.1399 163.105 75.9075 163.044C75.6724 162.975 75.4054 162.997 75.1066 163.112C74.8078 163.226 74.5937 163.387 74.4644 163.595C74.3323 163.796 74.268 164.021 74.2713 164.27C74.282 164.517 74.3301 164.774 74.4158 165.042C74.4681 165.222 74.5363 165.401 74.6205 165.577C74.7325 165.827 74.8681 166.051 75.0273 166.249C75.191 166.437 75.3891 166.562 75.6214 166.623C75.8537 166.685 76.1193 166.659 76.4181 166.544Z" fill="white"/>
<path d="M85.7895 164.455C85.3522 164.622 84.9574 164.714 84.605 164.732C84.2599 164.747 83.9597 164.716 83.7044 164.638C83.4492 164.56 83.2449 164.462 83.0917 164.346C82.9385 164.229 82.8387 164.121 82.7925 164.021C82.7545 163.944 82.7527 163.874 82.787 163.81C82.8259 163.737 82.8781 163.688 82.9437 163.663L83.8073 163.333C83.8365 163.322 83.8634 163.316 83.8881 163.315C83.9127 163.314 83.9502 163.324 84.0006 163.347C84.126 163.391 84.2564 163.437 84.3918 163.486C84.5346 163.531 84.6913 163.559 84.8622 163.569C85.0302 163.572 85.2236 163.531 85.4422 163.448C85.7265 163.339 85.9425 163.194 86.0902 163.012C86.2424 162.82 86.2782 162.619 86.1974 162.407C86.139 162.254 86.0479 162.147 85.9242 162.086C85.8078 162.022 85.6228 161.996 85.369 162.01C85.1124 162.016 84.7597 162.055 84.3108 162.126C83.8665 162.187 83.4816 162.196 83.1563 162.153C82.8309 162.111 82.5609 162.005 82.3461 161.837C82.1314 161.668 81.9683 161.438 81.857 161.146C81.7484 160.862 81.7292 160.561 81.7993 160.241C81.874 159.912 82.047 159.6 82.3182 159.304C82.5967 159.005 82.9874 158.76 83.4903 158.568C83.8839 158.418 84.2459 158.338 84.5765 158.328C84.9042 158.312 85.1907 158.34 85.4359 158.414C85.6883 158.484 85.8948 158.577 86.0553 158.691C86.2131 158.797 86.3165 158.904 86.3655 159.011C86.4034 159.088 86.4066 159.162 86.3751 159.232C86.3408 159.296 86.2908 159.34 86.2252 159.365L85.4162 159.674C85.3798 159.688 85.3442 159.693 85.3095 159.69C85.2748 159.686 85.2386 159.679 85.2011 159.668C85.0931 159.626 84.9764 159.583 84.851 159.539C84.7257 159.495 84.5826 159.47 84.4218 159.465C84.2656 159.45 84.0781 159.484 83.8595 159.567C83.5825 159.673 83.3948 159.816 83.2964 159.995C83.1952 160.167 83.1794 160.345 83.249 160.527C83.2963 160.651 83.3709 160.748 83.4727 160.817C83.579 160.877 83.7531 160.906 83.9951 160.906C84.2371 160.905 84.5898 160.867 85.0533 160.79C85.575 160.691 86.0114 160.674 86.3625 160.741C86.7181 160.797 86.9973 160.916 87.2003 161.097C87.4077 161.268 87.5629 161.489 87.666 161.759C87.7913 162.087 87.8056 162.419 87.7091 162.757C87.6198 163.092 87.415 163.408 87.0944 163.706C86.7784 163.994 86.3434 164.243 85.7895 164.455Z" fill="white"/>
<path d="M91.969 162.094C91.3859 162.317 90.8549 162.403 90.3761 162.352C89.9046 162.298 89.4921 162.126 89.1387 161.835C88.7926 161.541 88.5103 161.152 88.2918 160.668C88.2344 160.539 88.1695 160.38 88.0971 160.191C88.0247 160.001 87.9671 159.839 87.9243 159.705C87.7613 159.191 87.7159 158.712 87.788 158.267C87.8647 157.811 88.0608 157.407 88.3764 157.052C88.6993 156.695 89.145 156.408 89.7135 156.19C90.282 155.973 90.802 155.892 91.2736 155.945C91.7524 155.996 92.1685 156.167 92.5219 156.458C92.8797 156.739 93.1693 157.125 93.3906 157.617C93.448 157.745 93.5129 157.904 93.5853 158.094C93.6577 158.283 93.7153 158.445 93.7582 158.579C93.9184 159.086 93.9638 159.566 93.8944 160.018C93.8324 160.468 93.6399 160.871 93.317 161.228C93.0014 161.583 92.552 161.871 91.969 162.094ZM91.5555 161.012C91.9417 160.864 92.1946 160.63 92.3141 160.309C92.4308 159.98 92.4096 159.575 92.2504 159.093C92.216 158.98 92.1653 158.837 92.0985 158.662C92.0317 158.487 91.9737 158.346 91.9247 158.24C91.7246 157.782 91.4715 157.469 91.1655 157.302C90.8594 157.135 90.5133 157.125 90.127 157.273C89.7407 157.42 89.4892 157.658 89.3725 157.987C89.2558 158.316 89.2757 158.717 89.432 159.192C89.4665 159.304 89.5171 159.448 89.584 159.623C89.6508 159.798 89.7087 159.938 89.7578 160.045C89.9607 160.51 90.2151 160.826 90.5211 160.994C90.8244 161.153 91.1692 161.159 91.5555 161.012Z" fill="white"/>
<path d="M98.4389 159.622C97.8558 159.845 97.3249 159.931 96.846 159.88C96.3745 159.826 95.962 159.654 95.6086 159.363C95.2626 159.069 94.9803 158.68 94.7618 158.196C94.7043 158.067 94.6394 157.908 94.5671 157.719C94.4947 157.529 94.437 157.368 94.3942 157.234C94.2312 156.72 94.1858 156.24 94.2579 155.795C94.3346 155.34 94.5307 154.935 94.8463 154.58C95.1692 154.223 95.6149 153.936 96.1834 153.719C96.7519 153.501 97.2719 153.42 97.7435 153.473C98.2223 153.524 98.6384 153.695 98.9918 153.986C99.3497 154.267 99.6393 154.654 99.8605 155.145C99.9179 155.274 99.9829 155.433 100.055 155.622C100.128 155.812 100.185 155.973 100.228 156.107C100.388 156.614 100.434 157.094 100.364 157.546C100.302 157.996 100.11 158.399 99.7869 158.757C99.4713 159.111 99.022 159.4 98.4389 159.622ZM98.0254 158.54C98.4117 158.392 98.6646 158.158 98.784 157.837C98.9007 157.508 98.8795 157.103 98.7204 156.621C98.6859 156.509 98.6352 156.365 98.5684 156.19C98.5016 156.015 98.4436 155.875 98.3946 155.768C98.1945 155.31 97.9414 154.997 97.6354 154.83C97.3294 154.663 96.9832 154.653 96.5969 154.801C96.2106 154.949 95.9591 155.187 95.8424 155.515C95.7258 155.844 95.7456 156.245 95.9019 156.72C95.9364 156.832 95.9871 156.976 96.0539 157.151C96.1207 157.326 96.1787 157.466 96.2277 157.573C96.4306 158.038 96.685 158.355 96.9911 158.522C97.2943 158.681 97.6391 158.688 98.0254 158.54Z" fill="white"/>
<path d="M102.615 157.902C102.542 157.929 102.47 157.928 102.4 157.896C102.329 157.865 102.28 157.812 102.252 157.739L100.281 152.579C100.253 152.506 100.255 152.435 100.286 152.364C100.318 152.294 100.37 152.244 100.443 152.217L101.339 151.874C101.412 151.846 101.484 151.848 101.555 151.88C101.625 151.911 101.674 151.963 101.702 152.036L101.873 152.485C101.974 152.179 102.14 151.894 102.374 151.629C102.611 151.355 102.949 151.134 103.386 150.967C103.83 150.797 104.256 150.752 104.662 150.83C105.065 150.902 105.423 151.086 105.738 151.384C106.059 151.679 106.317 152.081 106.512 152.592L107.686 155.664C107.714 155.736 107.712 155.808 107.68 155.879C107.649 155.949 107.597 155.998 107.524 156.026L106.562 156.394C106.489 156.422 106.417 156.42 106.347 156.388C106.276 156.357 106.227 156.305 106.199 156.232L105.05 153.225C104.889 152.802 104.656 152.511 104.353 152.351C104.057 152.189 103.712 152.183 103.319 152.333C102.94 152.478 102.683 152.714 102.549 153.041C102.415 153.367 102.429 153.742 102.591 154.165L103.739 157.171C103.767 157.244 103.765 157.316 103.734 157.387C103.702 157.457 103.65 157.506 103.577 157.534L102.615 157.902Z" fill="white"/>
</svg>
