<svg width="17" height="17" viewBox="0 0 17 17" fill="none" xmlns="http://www.w3.org/2000/svg">
<path d="M8.33333 14.6374C11.8311 14.6374 14.6667 11.8018 14.6667 8.30404C14.6667 4.80623 11.8311 1.9707 8.33333 1.9707C4.83553 1.9707 2 4.80623 2 8.30404C2 11.8018 4.83553 14.6374 8.33333 14.6374Z" fill="#C9B8FF"/>
<path d="M14.8667 15.3031C14.7467 15.3031 14.6267 15.2564 14.54 15.1698L13.3 13.9298C13.12 13.7498 13.12 13.4564 13.3 13.2698C13.48 13.0898 13.7734 13.0898 13.96 13.2698L15.2 14.5098C15.38 14.6898 15.38 14.9831 15.2 15.1698C15.1067 15.2564 14.9867 15.3031 14.8667 15.3031Z" fill="#C9B8FF"/>
</svg>
