<svg width="17" height="17" viewBox="0 0 17 17" fill="none" xmlns="http://www.w3.org/2000/svg">
<path d="M8.78503 13.9414C8.96819 13.984 8.98497 14.2239 8.80657 14.2833L7.75324 14.63C5.10657 15.4833 3.71324 14.77 2.85324 12.1233L1.9999 9.49C1.14657 6.84333 1.85324 5.44333 4.4999 4.59L4.51057 4.58647C4.91343 4.45305 5.31427 4.86031 5.21226 5.27225C5.20589 5.29798 5.19955 5.3239 5.19324 5.35L4.5399 8.14333C3.80657 11.2833 4.8799 13.0167 8.0199 13.7633L8.78503 13.9414Z" fill="#DBDCDE"/>
<path d="M11.78 2.77705L10.6666 2.51705C8.43996 1.99038 7.11329 2.42372 6.33329 4.03705C6.13329 4.44372 5.97329 4.93705 5.83996 5.50372L5.18662 8.29705C4.53329 11.0837 5.39329 12.457 8.17329 13.117L9.29329 13.3837C9.67996 13.477 10.04 13.537 10.3733 13.5637C12.4533 13.7637 13.56 12.7904 14.12 10.3837L14.7733 7.59705C15.4266 4.81038 14.5733 3.43038 11.78 2.77705ZM10.5266 9.52372C10.4666 9.75038 10.2666 9.89705 10.04 9.89705C9.99996 9.89705 9.95996 9.89038 9.91329 9.88372L7.97329 9.39038C7.70662 9.32372 7.54662 9.05038 7.61329 8.78372C7.67996 8.51705 7.95329 8.35705 8.21996 8.42372L10.16 8.91705C10.4333 8.98372 10.5933 9.25705 10.5266 9.52372ZM12.48 7.27038C12.42 7.49705 12.22 7.64372 11.9933 7.64372C11.9533 7.64372 11.9133 7.63705 11.8666 7.63038L8.63329 6.81038C8.36662 6.74372 8.20662 6.47038 8.27329 6.20372C8.33996 5.93705 8.61329 5.77705 8.87996 5.84372L12.1133 6.66372C12.3866 6.72372 12.5466 6.99705 12.48 7.27038Z" fill="#DBDCDE"/>
</svg>
