<svg width="16" height="17" viewBox="0 0 16 17" fill="none" xmlns="http://www.w3.org/2000/svg">
<path d="M13.8866 5.97738L9.51989 2.48405C8.66656 1.80405 7.33323 1.79738 6.48656 2.47738L2.11989 5.97738C1.49323 6.47738 1.11323 7.47738 1.24656 8.26405L2.08656 13.2907C2.27989 14.4174 3.32656 15.304 4.46656 15.304H11.5332C12.6599 15.304 13.7266 14.3974 13.9199 13.284L14.7599 8.25738C14.8799 7.47738 14.4999 6.47738 13.8866 5.97738ZM8.49989 12.6374C8.49989 12.9107 8.27323 13.1374 7.99989 13.1374C7.72656 13.1374 7.49989 12.9107 7.49989 12.6374V10.6374C7.49989 10.364 7.72656 10.1374 7.99989 10.1374C8.27323 10.1374 8.49989 10.364 8.49989 10.6374V12.6374Z" fill="#DBDCDE"/>
</svg>
