<svg width="20" height="21" viewBox="0 0 20 21" fill="none" xmlns="http://www.w3.org/2000/svg">
<path d="M18.6335 7.62686L18.3919 5.31852C18.0419 2.80186 16.9002 1.77686 14.4585 1.77686H12.4919H11.2585H8.7252H7.49186H5.49186C3.04186 1.77686 1.90853 2.80186 1.5502 5.34352L1.3252 7.63519C1.24186 8.52685 1.48353 9.39352 2.00853 10.0685C2.64186 10.8935 3.61686 11.3602 4.7002 11.3602C5.7502 11.3602 6.75853 10.8352 7.39186 9.99352C7.95853 10.8352 8.9252 11.3602 10.0002 11.3602C11.0752 11.3602 12.0169 10.8602 12.5919 10.0269C13.2335 10.8519 14.2252 11.3602 15.2585 11.3602C16.3669 11.3602 17.3669 10.8685 17.9919 10.0019C18.4919 9.33519 18.7169 8.49352 18.6335 7.62686Z" fill="white"/>
<path d="M9.45843 14.6187C8.4001 14.7271 7.6001 15.6271 7.6001 16.6937V18.9771C7.6001 19.2021 7.78343 19.3854 8.00843 19.3854H11.9834C12.2084 19.3854 12.3918 19.2021 12.3918 18.9771V16.9854C12.4001 15.2437 11.3751 14.4187 9.45843 14.6187Z" fill="white"/>
<path d="M17.8086 12.7354V15.2187C17.8086 17.5187 15.9419 19.3854 13.6419 19.3854C13.4169 19.3854 13.2336 19.2021 13.2336 18.9771V16.9854C13.2336 15.9187 12.9086 15.0854 12.2752 14.5188C11.7169 14.0104 10.9586 13.7604 10.0169 13.7604C9.80856 13.7604 9.60023 13.7687 9.37523 13.7938C7.89189 13.9438 6.76689 15.1937 6.76689 16.6937V18.9771C6.76689 19.2021 6.58356 19.3854 6.35856 19.3854C4.05856 19.3854 2.19189 17.5187 2.19189 15.2187V12.7521C2.19189 12.1688 2.76689 11.7771 3.30856 11.9687C3.53356 12.0437 3.75856 12.1021 3.99189 12.1354C4.09189 12.1521 4.20023 12.1688 4.30023 12.1688C4.43356 12.1854 4.56689 12.1938 4.70023 12.1938C5.66689 12.1938 6.61689 11.8354 7.36689 11.2188C8.08356 11.8354 9.01689 12.1938 10.0002 12.1938C10.9919 12.1938 11.9086 11.8521 12.6252 11.2354C13.3752 11.8438 14.3086 12.1938 15.2586 12.1938C15.4086 12.1938 15.5586 12.1854 15.7002 12.1688C15.8002 12.1604 15.8919 12.1521 15.9836 12.1354C16.2419 12.1021 16.4752 12.0271 16.7086 11.9521C17.2502 11.7688 17.8086 12.1687 17.8086 12.7354Z" fill="white"/>
</svg>
