<svg width="14" height="14" viewBox="0 0 14 14" fill="none" xmlns="http://www.w3.org/2000/svg">
<path d="M7.00018 8.266C5.75768 8.266 4.74268 7.25684 4.74268 6.0085C4.74268 4.76017 5.75768 3.75684 7.00018 3.75684C8.24268 3.75684 9.25768 4.766 9.25768 6.01434C9.25768 7.26267 8.24268 8.266 7.00018 8.266ZM7.00018 4.63184C6.24184 4.63184 5.61768 5.25017 5.61768 6.01434C5.61768 6.7785 6.23601 7.39684 7.00018 7.39684C7.76434 7.39684 8.38268 6.7785 8.38268 6.01434C8.38268 5.25017 7.75851 4.63184 7.00018 4.63184Z" fill="#67687E"/>
<path d="M6.99998 13.277C6.13665 13.277 5.26748 12.9503 4.59081 12.3028C2.86998 10.6462 0.968314 8.00366 1.68581 4.85949C2.33331 2.00699 4.82415 0.729492 6.99998 0.729492C6.99998 0.729492 6.99998 0.729492 7.00581 0.729492C9.18165 0.729492 11.6725 2.00699 12.32 4.86533C13.0316 8.00949 11.13 10.6462 9.40915 12.3028C8.73248 12.9503 7.86331 13.277 6.99998 13.277ZM6.99998 1.60449C5.30248 1.60449 3.12081 2.50866 2.54331 5.05199C1.91331 7.79949 3.63998 10.1678 5.20331 11.667C6.21248 12.6412 7.79331 12.6412 8.80248 11.667C10.36 10.1678 12.0866 7.79949 11.4683 5.05199C10.885 2.50866 8.69748 1.60449 6.99998 1.60449Z" fill="#67687E"/>
</svg>
