<svg width="16" height="16" viewBox="0 0 16 16" fill="none" xmlns="http://www.w3.org/2000/svg">
<path d="M8 11.5659C8.60015 11.5659 9.08666 11.0794 9.08666 10.4792C9.08666 9.8791 8.60015 9.39258 8 9.39258C7.39985 9.39258 6.91333 9.8791 6.91333 10.4792C6.91333 11.0794 7.39985 11.5659 8 11.5659Z" fill="#2CFF73"/>
<path d="M12.1866 6.35398V5.52065C12.1866 3.72065 11.7533 1.33398 7.99992 1.33398C4.24659 1.33398 3.81325 3.72065 3.81325 5.52065V6.35398C1.94659 6.58732 1.33325 7.53398 1.33325 9.86065V11.1007C1.33325 13.834 2.16659 14.6673 4.89992 14.6673H11.0999C13.8333 14.6673 14.6666 13.834 14.6666 11.1007V9.86065C14.6666 7.53398 14.0533 6.58732 12.1866 6.35398ZM7.99992 12.494C6.88659 12.494 5.98659 11.5873 5.98659 10.4807C5.98659 9.36732 6.89325 8.46732 7.99992 8.46732C9.10659 8.46732 10.0133 9.37399 10.0133 10.4807C10.0133 11.594 9.11325 12.494 7.99992 12.494ZM4.89992 6.29398C4.84659 6.29398 4.79992 6.29398 4.74659 6.29398V5.52065C4.74659 3.56732 5.29992 2.26732 7.99992 2.26732C10.6999 2.26732 11.2533 3.56732 11.2533 5.52065V6.30065C11.1999 6.30065 11.1533 6.30065 11.0999 6.30065H4.89992V6.29398Z" fill="#2CFF73"/>
</svg>
