<svg width="75" height="10" viewBox="0 0 75 10" fill="none" xmlns="http://www.w3.org/2000/svg">
<path d="M0 9.36777V7.97577H1.104V2.35977H0V0.967773H3.456C4.584 0.967773 5.44 1.25577 6.024 1.83177C6.616 2.39977 6.912 3.24777 6.912 4.37577V5.95977C6.912 7.08777 6.616 7.93977 6.024 8.51577C5.44 9.08377 4.584 9.36777 3.456 9.36777H0ZM2.688 7.92777H3.48C4.12 7.92777 4.588 7.75977 4.884 7.42377C5.18 7.08777 5.328 6.61577 5.328 6.00777V4.32777C5.328 3.71177 5.18 3.23977 4.884 2.91177C4.588 2.57577 4.12 2.40777 3.48 2.40777H2.688V7.92777Z" fill="white"/>
<path d="M7.91211 9.36777V0.967773H9.49611V9.36777H7.91211Z" fill="white"/>
<path d="M10.4961 9.36777V7.97577H11.6001V2.35977H10.4961V0.967773H13.9521C15.0801 0.967773 15.9361 1.25577 16.5201 1.83177C17.1121 2.39977 17.4081 3.24777 17.4081 4.37577V5.95977C17.4081 7.08777 17.1121 7.93977 16.5201 8.51577C15.9361 9.08377 15.0801 9.36777 13.9521 9.36777H10.4961ZM13.1841 7.92777H13.9761C14.6161 7.92777 15.0841 7.75977 15.3801 7.42377C15.6761 7.08777 15.8241 6.61577 15.8241 6.00777V4.32777C15.8241 3.71177 15.6761 3.23977 15.3801 2.91177C15.0841 2.57577 14.6161 2.40777 13.9761 2.40777H13.1841V7.92777Z" fill="white"/>
<path d="M21.7922 9.36784C20.7522 9.36784 19.9282 9.07984 19.3202 8.50384C18.7122 7.91984 18.4082 7.08784 18.4082 6.00784V3.99184C18.4082 2.91184 18.7122 2.08384 19.3202 1.50784C19.9282 0.923836 20.7522 0.631836 21.7922 0.631836C22.8242 0.631836 23.6202 0.915836 24.1802 1.48384C24.7482 2.04384 25.0322 2.81584 25.0322 3.79984V3.87184H23.4722V3.75184C23.4722 3.25584 23.3322 2.84784 23.0522 2.52784C22.7802 2.20784 22.3602 2.04784 21.7922 2.04784C21.2322 2.04784 20.7922 2.21984 20.4722 2.56384C20.1522 2.90784 19.9922 3.37584 19.9922 3.96784V6.03184C19.9922 6.61584 20.1522 7.08384 20.4722 7.43584C20.7922 7.77984 21.2322 7.95184 21.7922 7.95184C22.3602 7.95184 22.7802 7.79184 23.0522 7.47184C23.3322 7.14384 23.4722 6.73584 23.4722 6.24784V6.03184H25.0322V6.19984C25.0322 7.18384 24.7482 7.95984 24.1802 8.52784C23.6202 9.08784 22.8242 9.36784 21.7922 9.36784Z" fill="white"/>
<path fill-rule="evenodd" clip-rule="evenodd" d="M26.9682 8.50384C27.5922 9.07984 28.4322 9.36784 29.4882 9.36784C30.5442 9.36784 31.3842 9.07984 32.0082 8.50384C32.6294 7.92251 32.9413 7.09545 32.9442 6.02266H31.3602V6.05584C31.3602 6.63184 31.1962 7.09184 30.8682 7.43584C30.5402 7.77984 30.0802 7.95184 29.4882 7.95184C28.9042 7.95184 28.4442 7.77984 28.1082 7.43584C27.7802 7.09184 27.6162 6.63184 27.6162 6.05584V6.02266H26.0322C26.0351 7.09545 26.3471 7.92251 26.9682 8.50384ZM26.0338 3.85957C26.0585 2.84401 26.3699 2.06009 26.9682 1.50784C27.5922 0.923836 28.4322 0.631836 29.4882 0.631836C30.5442 0.631836 31.3842 0.923836 32.0082 1.50784C32.6065 2.06009 32.918 2.84401 32.9426 3.85957H31.359C31.3437 3.3228 31.1801 2.89089 30.8682 2.56384C30.5402 2.21984 30.0802 2.04784 29.4882 2.04784C28.9042 2.04784 28.4442 2.21984 28.1082 2.56384C27.7964 2.89089 27.6328 3.3228 27.6174 3.85957H26.0338Z" fill="white"/>
<rect x="28.6294" y="6.72754" width="3.4552" height="1.71807" transform="rotate(-90 28.6294 6.72754)" fill="white"/>
<path d="M33.9438 9.36777V0.967773H36.9558L38.6238 8.28777H38.8398V0.967773H40.3998V9.36777H37.3878L35.7198 2.04777H35.5038V9.36777H33.9438Z" fill="white"/>
<path d="M41.3999 9.36777V0.967773H44.4119L46.0799 8.28777H46.2959V0.967773H47.8559V9.36777H44.8439L43.1759 2.04777H42.9599V9.36777H41.3999Z" fill="white"/>
<path d="M48.856 9.36777V0.967773H54.256V2.40777H50.44V4.41177H53.92V5.85177H50.44V7.92777H54.328V9.36777H48.856Z" fill="white"/>
<path d="M58.7121 9.36784C57.6721 9.36784 56.8481 9.07984 56.2401 8.50384C55.6321 7.91984 55.3281 7.08784 55.3281 6.00784V3.99184C55.3281 2.91184 55.6321 2.08384 56.2401 1.50784C56.8481 0.923836 57.6721 0.631836 58.7121 0.631836C59.7441 0.631836 60.5401 0.915836 61.1001 1.48384C61.6681 2.04384 61.9521 2.81584 61.9521 3.79984V3.87184H60.3921V3.75184C60.3921 3.25584 60.2521 2.84784 59.9721 2.52784C59.7001 2.20784 59.2801 2.04784 58.7121 2.04784C58.1521 2.04784 57.7121 2.21984 57.3921 2.56384C57.0721 2.90784 56.9121 3.37584 56.9121 3.96784V6.03184C56.9121 6.61584 57.0721 7.08384 57.3921 7.43584C57.7121 7.77984 58.1521 7.95184 58.7121 7.95184C59.2801 7.95184 59.7001 7.79184 59.9721 7.47184C60.2521 7.14384 60.3921 6.73584 60.3921 6.24784V6.03184H61.9521V6.19984C61.9521 7.18384 61.6681 7.95984 61.1001 8.52784C60.5401 9.08784 59.7441 9.36784 58.7121 9.36784Z" fill="white"/>
<path d="M65.4001 9.36777V2.40777H62.9521V0.967773H69.4321V2.40777H66.9841V9.36777H65.4001Z" fill="white"/>
<circle cx="72.4321" cy="7.36768" r="2" fill="white"/>
</svg>
