<svg width="20" height="20" viewBox="0 0 20 20" fill="none" xmlns="http://www.w3.org/2000/svg">
<path d="M9.99992 16.6668C9.54159 16.6668 9.14936 16.5038 8.82325 16.1777C8.49659 15.851 8.33325 15.4585 8.33325 15.0002C8.33325 14.5418 8.49659 14.1493 8.82325 13.8227C9.14936 13.4966 9.54159 13.3335 9.99992 13.3335C10.4583 13.3335 10.8508 13.4966 11.1774 13.8227C11.5035 14.1493 11.6666 14.5418 11.6666 15.0002C11.6666 15.4585 11.5035 15.851 11.1774 16.1777C10.8508 16.5038 10.4583 16.6668 9.99992 16.6668ZM9.99992 11.6668C9.54159 11.6668 9.14936 11.5035 8.82325 11.1768C8.49659 10.8507 8.33325 10.4585 8.33325 10.0002C8.33325 9.54183 8.49659 9.14933 8.82325 8.82266C9.14936 8.49655 9.54159 8.3335 9.99992 8.3335C10.4583 8.3335 10.8508 8.49655 11.1774 8.82266C11.5035 9.14933 11.6666 9.54183 11.6666 10.0002C11.6666 10.4585 11.5035 10.8507 11.1774 11.1768C10.8508 11.5035 10.4583 11.6668 9.99992 11.6668ZM9.99992 6.66683C9.54159 6.66683 9.14936 6.5035 8.82325 6.17683C8.49659 5.85072 8.33325 5.4585 8.33325 5.00016C8.33325 4.54183 8.49659 4.14961 8.82325 3.8235C9.14936 3.49683 9.54159 3.3335 9.99992 3.3335C10.4583 3.3335 10.8508 3.49683 11.1774 3.8235C11.5035 4.14961 11.6666 4.54183 11.6666 5.00016C11.6666 5.4585 11.5035 5.85072 11.1774 6.17683C10.8508 6.5035 10.4583 6.66683 9.99992 6.66683Z" fill="white"/>
</svg>
