<svg width="25" height="25" viewBox="0 0 25 25" fill="none" xmlns="http://www.w3.org/2000/svg">
<path d="M12.3301 23.1504C6.40008 23.1504 1.58008 18.3304 1.58008 12.4004C1.58008 6.47039 6.40008 1.65039 12.3301 1.65039C18.2601 1.65039 23.0801 6.47039 23.0801 12.4004C23.0801 18.3304 18.2601 23.1504 12.3301 23.1504ZM12.3301 3.15039C7.23008 3.15039 3.08008 7.30039 3.08008 12.4004C3.08008 17.5004 7.23008 21.6504 12.3301 21.6504C17.4301 21.6504 21.5801 17.5004 21.5801 12.4004C21.5801 7.30039 17.4301 3.15039 12.3301 3.15039Z" fill="white"/>
<path d="M10.9105 15.98C10.7105 15.98 10.5205 15.9 10.3805 15.76L7.55051 12.93C7.26051 12.64 7.26051 12.16 7.55051 11.87C7.84051 11.58 8.32051 11.58 8.61051 11.87L10.9105 14.17L16.0505 9.03C16.3405 8.74 16.8205 8.74 17.1105 9.03C17.4005 9.32 17.4005 9.8 17.1105 10.09L11.4405 15.76C11.3005 15.9 11.1105 15.98 10.9105 15.98Z" fill="white"/>
</svg>
