<svg width="32" height="32" viewBox="0 0 32 32" fill="none" xmlns="http://www.w3.org/2000/svg">
<path d="M3.69317 13.3337C3.11984 13.3337 2.6665 12.8803 2.6665 12.307V9.22699C2.6665 5.61366 5.61317 2.66699 9.2265 2.66699H12.3065C12.8798 2.66699 13.3332 3.12033 13.3332 3.69366C13.3332 4.26699 12.8798 4.72033 12.3065 4.72033H9.2265C6.73317 4.72033 4.71984 6.74699 4.71984 9.22699V12.307C4.71984 12.8803 4.25317 13.3337 3.69317 13.3337Z" fill="#C9B8FF"/>
<path d="M28.3065 13.3337C27.7465 13.3337 27.2798 12.8803 27.2798 12.307V9.22699C27.2798 6.73366 25.2532 4.72033 22.7732 4.72033H19.6932C19.1198 4.72033 18.6665 4.25366 18.6665 3.69366C18.6665 3.13366 19.1198 2.66699 19.6932 2.66699H22.7732C26.3865 2.66699 29.3332 5.61366 29.3332 9.22699V12.307C29.3332 12.8803 28.8798 13.3337 28.3065 13.3337Z" fill="#C9B8FF"/>
<path d="M22.7736 29.3329H20.9202C20.3602 29.3329 19.8936 28.8796 19.8936 28.3062C19.8936 27.7462 20.3469 27.2796 20.9202 27.2796H22.7736C25.2669 27.2796 27.2802 25.2529 27.2802 22.7729V20.9329C27.2802 20.3729 27.7336 19.9062 28.3069 19.9062C28.8669 19.9062 29.3336 20.3596 29.3336 20.9329V22.7729C29.3336 26.3862 26.3869 29.3329 22.7736 29.3329Z" fill="#C9B8FF"/>
<path d="M12.3065 29.3337H9.2265C5.61317 29.3337 2.6665 26.387 2.6665 22.7737V19.6937C2.6665 19.1203 3.11984 18.667 3.69317 18.667C4.2665 18.667 4.71984 19.1203 4.71984 19.6937V22.7737C4.71984 25.267 6.7465 27.2803 9.2265 27.2803H12.3065C12.8665 27.2803 13.3332 27.7337 13.3332 28.307C13.3332 28.8803 12.8798 29.3337 12.3065 29.3337Z" fill="#C9B8FF"/>
<path d="M24.6132 14.9736H22.7999H9.19986H7.38653C6.8132 14.9736 6.35986 15.4403 6.35986 16.0003C6.35986 16.5603 6.8132 17.027 7.38653 17.027H9.19986H22.7999H24.6132C25.1865 17.027 25.6399 16.5603 25.6399 16.0003C25.6399 15.4403 25.1865 14.9736 24.6132 14.9736Z" fill="#C9B8FF"/>
<path d="M9.2002 18.5866V19.0266C9.2002 21.24 10.9869 23.0266 13.2002 23.0266H18.8002C21.0135 23.0266 22.8002 21.24 22.8002 19.0266V18.5866C22.8002 18.4266 22.6802 18.3066 22.5202 18.3066H9.4802C9.3202 18.3066 9.2002 18.4266 9.2002 18.5866Z" fill="#C9B8FF"/>
<path d="M9.2002 13.4136V12.9736C9.2002 10.7603 10.9869 8.97363 13.2002 8.97363H18.8002C21.0135 8.97363 22.8002 10.7603 22.8002 12.9736V13.4136C22.8002 13.5736 22.6802 13.6936 22.5202 13.6936H9.4802C9.3202 13.6936 9.2002 13.5736 9.2002 13.4136Z" fill="#C9B8FF"/>
</svg>
