<svg width="12" height="12" viewBox="0 0 12 12" fill="none" xmlns="http://www.w3.org/2000/svg">
<path d="M10.4301 4.27965L6.96513 1.50965C6.43013 1.07965 5.56513 1.07965 5.03513 1.50465L1.57013 4.27965C1.18013 4.58965 0.930133 5.24465 1.01513 5.73465L1.68013 9.71465C1.80013 10.4247 2.48013 10.9997 3.20013 10.9997H8.80013C9.51513 10.9997 10.2001 10.4197 10.3201 9.71465L10.9851 5.73465C11.0651 5.24465 10.8151 4.58965 10.4301 4.27965ZM4.69013 8.68965C4.41013 8.68965 4.19013 8.46465 4.19013 8.18965C4.19013 7.91465 4.41513 7.68965 4.69013 7.68965C4.96513 7.68965 5.19013 7.91465 5.19013 8.18965C5.19013 8.46465 4.96513 8.68965 4.69013 8.68965ZM6.19513 8.55965C6.19013 8.55965 6.19013 8.55965 6.18513 8.55965C5.98013 8.55965 5.81513 8.39465 5.81013 8.19465C5.79513 7.51965 5.35013 7.07465 4.67513 7.05965C4.47013 7.05465 4.30513 6.88465 4.31013 6.67465C4.31513 6.46965 4.48013 6.30965 4.68513 6.30965C4.69013 6.30965 4.69013 6.30965 4.69513 6.30965C5.77013 6.33465 6.54013 7.09965 6.56013 8.17465C6.56513 8.38465 6.40513 8.55965 6.19513 8.55965ZM7.69013 8.55965C7.48013 8.55965 7.31513 8.39465 7.31013 8.18965C7.30513 7.85965 7.25013 7.54465 7.15013 7.24965C6.89513 6.51965 6.35013 5.97965 5.62013 5.71965C5.32513 5.61465 5.01013 5.55965 4.68013 5.55965C4.47513 5.55965 4.30513 5.38965 4.31013 5.17965C4.31013 4.97465 4.48013 4.80965 4.68513 4.80965H4.69013C5.10513 4.81465 5.50013 4.88465 5.87013 5.01465C6.81513 5.34965 7.52013 6.05465 7.85513 6.99965C7.98513 7.36965 8.05513 7.76965 8.06013 8.17965C8.06513 8.38965 7.90013 8.55965 7.69013 8.55965Z" fill="white"/>
</svg>
