<svg width="73" height="72" viewBox="0 0 73 72" fill="none" xmlns="http://www.w3.org/2000/svg">
<path opacity="0.4" d="M36.5 66C53.0685 66 66.5 52.5685 66.5 36C66.5 19.4315 53.0685 6 36.5 6C19.9315 6 6.5 19.4315 6.5 36C6.5 52.5685 19.9315 66 36.5 66Z" fill="#2CFF73"/>
<path d="M32.2398 46.7408C31.6398 46.7408 31.0698 46.5008 30.6498 46.0808L22.1598 37.5908C21.2898 36.7208 21.2898 35.2808 22.1598 34.4108C23.0298 33.5408 24.4698 33.5408 25.3398 34.4108L32.2398 41.3108L47.6598 25.8908C48.5298 25.0208 49.9698 25.0208 50.8398 25.8908C51.7098 26.7608 51.7098 28.2008 50.8398 29.0708L33.8298 46.0808C33.4098 46.5008 32.8398 46.7408 32.2398 46.7408Z" fill="#2CFF73"/>
</svg>
