<svg width="20" height="21" viewBox="0 0 20 21" fill="none" xmlns="http://www.w3.org/2000/svg">
<g clip-path="url(#clip0_418_4286)">
<path fill-rule="evenodd" clip-rule="evenodd" d="M20 10.7354C20 16.2582 15.5228 20.7354 10 20.7354C4.47715 20.7354 0 16.2582 0 10.7354C0 5.2125 4.47715 0.735352 10 0.735352C15.5228 0.735352 20 5.2125 20 10.7354ZM5.29289 9.02824L9.29289 5.02824C9.68342 4.63772 10.3166 4.63772 10.7071 5.02824L14.7071 9.02824C15.0976 9.41877 15.0976 10.0519 14.7071 10.4425C14.3166 10.833 13.6834 10.833 13.2929 10.4425L11 8.14957V15.7354C11 16.2876 10.5523 16.7354 10 16.7354C9.44772 16.7354 9 16.2876 9 15.7354V8.14957L6.70711 10.4425C6.31658 10.833 5.68342 10.833 5.29289 10.4425C4.90237 10.0519 4.90237 9.41877 5.29289 9.02824Z" fill="white"/>
</g>
<defs>
<clipPath id="clip0_418_4286">
<rect width="20" height="20" fill="white" transform="translate(0 0.735352)"/>
</clipPath>
</defs>
</svg>
