<svg width="73" height="72" viewBox="0 0 73 72" fill="none" xmlns="http://www.w3.org/2000/svg">
<path opacity="0.4" d="M63.2928 25.7401V46.26C63.2928 49.62 61.4928 52.7401 58.5828 54.4501L40.7628 64.7401C37.8528 66.4201 34.2527 66.4201 31.3127 64.7401L13.4927 54.4501C10.5827 52.7701 8.78271 49.65 8.78271 46.26V25.7401C8.78271 22.3801 10.5827 19.26 13.4927 17.55L31.3127 7.26C34.2227 5.58 37.8228 5.58 40.7628 7.26L58.5828 17.55C61.4928 19.26 63.2928 22.3501 63.2928 25.7401Z" fill="#FFC839"/>
<path d="M36.0527 41.25C34.8227 41.25 33.8027 40.23 33.8027 39V23.25C33.8027 22.02 34.8227 21 36.0527 21C37.2827 21 38.3027 22.02 38.3027 23.25V39C38.3027 40.23 37.2827 41.25 36.0527 41.25Z" fill="#FFC839"/>
<path d="M36.0527 51.7501C35.6627 51.7501 35.2727 51.66 34.9127 51.51C34.5227 51.36 34.2227 51.1501 33.9227 50.8801C33.6527 50.5801 33.4428 50.2501 33.2628 49.8901C33.1128 49.5301 33.0527 49.1401 33.0527 48.7501C33.0527 47.9701 33.3527 47.19 33.9227 46.62C34.2227 46.35 34.5227 46.1401 34.9127 45.9901C36.0227 45.5101 37.3428 45.78 38.1828 46.62C38.4528 46.92 38.6627 47.22 38.8127 47.61C38.9627 47.97 39.0527 48.3601 39.0527 48.7501C39.0527 49.1401 38.9627 49.5301 38.8127 49.8901C38.6627 50.2501 38.4528 50.5801 38.1828 50.8801C37.6128 51.4501 36.8627 51.7501 36.0527 51.7501Z" fill="#FFC839"/>
</svg>
