<svg width="12" height="12" viewBox="0 0 12 12" fill="none" xmlns="http://www.w3.org/2000/svg">
<path d="M8.095 1H3.905C2.085 1 1 2.085 1 3.905V8.09C1 9.915 2.085 11 3.905 11H8.09C9.91 11 10.995 9.915 10.995 8.095V3.905C11 2.085 9.915 1 8.095 1ZM7.395 8.3C7.32 8.395 7.21 8.445 7.1 8.445C7.02 8.445 6.94 8.42 6.87 8.365C6.34 7.955 5.655 7.955 5.125 8.365C4.96 8.49 4.725 8.46 4.6 8.3C4.475 8.135 4.505 7.9 4.665 7.775C5.46 7.16 6.53 7.16 7.325 7.775C7.495 7.9 7.525 8.135 7.395 8.3ZM8.5 6.755C8.425 6.85 8.315 6.9 8.205 6.9C8.125 6.9 8.045 6.875 7.975 6.82C6.775 5.895 5.23 5.895 4.03 6.82C3.865 6.95 3.63 6.92 3.5 6.755C3.37 6.59 3.405 6.355 3.565 6.23C5.04 5.09 6.95 5.09 8.425 6.23C8.595 6.355 8.625 6.59 8.5 6.755ZM9.295 5.21C9.22 5.305 9.11 5.355 9 5.355C8.92 5.355 8.84 5.33 8.77 5.275C7.085 3.975 4.91 3.975 3.23 5.275C3.065 5.4 2.83 5.37 2.705 5.21C2.58 5.045 2.61 4.81 2.77 4.685C4.73 3.17 7.265 3.17 9.23 4.685C9.395 4.81 9.425 5.045 9.295 5.21Z" fill="white"/>
</svg>
